<svg width="373" height="319" viewBox="0 0 373 319" fill="none" xmlns="http://www.w3.org/2000/svg">
<g clip-path="url(#clip0_10_3010)">
<path d="M372.984 156.019C373.339 176.632 365.988 196.641 353.98 213.233C306.356 279.457 228.816 344.094 143.289 309.241C83.0125 280.263 -30.1424 219.358 7.54364 150.321C18.9881 130.498 39.4108 117.355 56.9401 103.212C84.036 81.7686 100.671 49.2852 130.797 31.4278C262.295 -50.768 359.452 41.4766 372.984 156.019Z" fill="#191B21"/>
<g opacity="0.7">
<path d="M372.984 156.019C371.541 220.8 290.947 291.948 233.475 312.932C159.731 337.381 87.6547 282.189 33.8498 239.85C-13.2014 204.555 -9.03464 148.21 39.1206 117.105C75.1867 94.2833 95.1017 54.2169 130.797 31.4278C262.295 -50.768 359.452 41.4766 372.984 156.019Z" fill="#191B21"/>
</g>
<path d="M347.419 213.467C347.476 255.75 310.209 259.747 309.153 213.467C308.025 179.251 348.54 179.235 347.419 213.467Z" fill="white"/>
<path d="M340.512 213.677C341.222 223.653 339.513 233.678 336.636 243.259C347.476 233.033 353.408 214.192 354.141 199.454C353.956 189.099 344.429 179.154 333.992 183.49C325.385 185.996 339.948 192.797 340.512 213.677Z" fill="#22252E"/>
<path d="M347.419 213.467C347.476 255.75 310.209 259.747 309.153 213.467C308.025 179.251 348.54 179.235 347.419 213.467Z" stroke="#263238" stroke-miterlimit="10"/>
<path d="M338.594 230.575C337.33 234.886 335.193 238.89 332.316 242.34L338.594 230.575Z" fill="white"/>
<path d="M338.594 230.575C337.33 234.886 335.193 238.89 332.316 242.34" stroke="#263238" stroke-miterlimit="10"/>
<path d="M339.199 228.238C339.102 228.689 338.989 229.141 338.868 229.592" stroke="#263238" stroke-miterlimit="10"/>
<path d="M339.15 213.419C340.158 217.722 340.287 222.184 339.529 226.538L339.15 213.419Z" fill="white"/>
<path d="M339.15 213.419C340.158 217.722 340.287 222.184 339.529 226.538" stroke="#263238" stroke-miterlimit="10"/>
<path d="M309.193 213.467C309.193 213.467 330.954 204.877 347.443 213.467" stroke="#263238" stroke-miterlimit="10"/>
<path d="M328.318 188.285C328.318 188.285 330.494 196.343 330.736 209.454L328.318 188.285Z" fill="white"/>
<path d="M328.318 188.285C328.318 188.285 330.494 196.343 330.736 209.454" stroke="#263238" stroke-miterlimit="10"/>
<path d="M331.357 198.059C332.05 203.837 329.044 204.506 328.407 198.527C327.714 192.741 330.704 192.112 331.357 198.059Z" fill="#BFBFBF" stroke="#263238" stroke-linecap="round" stroke-linejoin="round"/>
<path d="M319.743 253.59H294.227C292.714 253.594 291.251 253.047 290.11 252.052C288.97 251.058 288.23 249.682 288.029 248.183C287.723 247.167 288.102 188.244 287.957 187.213C287.963 185.552 288.626 183.961 289.8 182.787C290.975 181.612 292.566 180.95 294.227 180.943H366.536C367.591 180.953 368.625 181.23 369.543 181.749" stroke="#263238" stroke-miterlimit="10"/>
<path d="M326.013 108.563C369.929 109.312 369.921 174.642 326.013 175.367C282.081 174.618 282.081 109.304 326.013 108.563Z" stroke="#263238" stroke-linecap="round" stroke-linejoin="round"/>
<path opacity="0.2" d="M363.828 142.843C356.704 154.52 354.157 152.94 329.882 164.601C314.73 172.603 303.584 141.514 317.567 126.267C320.372 112.109 339.827 107.588 348.66 118.918C350.978 116.933 353.735 115.527 356.703 114.818C359.671 114.109 362.766 114.117 365.73 114.84C367.052 118.671 368.199 122.541 369.172 126.452C362.361 122.738 355.471 134.583 350.99 128.395C351.884 132.118 355.825 131.005 359.549 131.739C365.352 132.859 366.826 137.928 363.828 142.843Z" fill="black"/>
<path d="M352.859 137.082C359.081 136.509 368.172 134.318 365.368 145.857C364.199 147.074 360.677 149.29 350.248 150.088C335.556 151.208 352.859 137.082 352.859 137.082Z" fill="white" stroke="#263238" stroke-linecap="round" stroke-linejoin="round"/>
<path d="M348.483 125.002C358.461 137.283 352.65 160.548 330.43 166.1C312.941 168.517 298.885 153.593 301.883 135.591C303.963 123.157 334.468 107.564 348.483 125.002Z" fill="white" stroke="#263238" stroke-linecap="round" stroke-linejoin="round"/>
<path d="M327.126 113.946C360.476 114.51 360.476 161.402 327.126 161.958C293.784 161.402 293.784 114.502 327.126 113.946Z" fill="white"/>
<path d="M327.077 119.506C354.479 119.965 354.479 158.46 327.077 158.912C299.699 158.452 299.699 119.965 327.077 119.506Z" fill="#263238"/>
<path d="M352.489 137.952C351.933 106.395 302.319 106.452 301.762 137.952" stroke="#263238" stroke-linecap="round" stroke-linejoin="round"/>
<path d="M345.807 154.198C350.086 149.872 352.489 144.036 352.497 137.952" stroke="#263238" stroke-linecap="round" stroke-linejoin="round"/>
<path d="M309.362 155.084C317.148 162.409 329.358 164.021 338.868 159.226" stroke="#263238" stroke-linecap="round" stroke-linejoin="round"/>
<path d="M305.703 150.805C306.034 151.305 306.389 151.788 306.751 152.256" stroke="#263238" stroke-linecap="round" stroke-linejoin="round"/>
<path d="M301.762 137.952C301.763 141.507 302.591 145.014 304.18 148.194" stroke="#263238" stroke-linecap="round" stroke-linejoin="round"/>
<path d="M364.344 144.528C364.344 144.528 359.823 141.361 352.481 144.229L364.344 144.528Z" fill="white"/>
<path d="M364.344 144.528C364.344 144.528 359.823 141.361 352.481 144.229" stroke="#263238" stroke-linecap="round" stroke-linejoin="round"/>
<path d="M360.459 146.719C357.392 147.537 354.248 148.031 351.078 148.194L360.459 146.719Z" fill="white"/>
<path d="M360.459 146.719C357.392 147.537 354.248 148.031 351.078 148.194" stroke="#263238" stroke-linecap="round" stroke-linejoin="round"/>
<path d="M362.805 145.72C362.46 145.971 362.08 146.169 361.676 146.308L362.805 145.72Z" fill="white"/>
<path d="M362.805 145.72C362.46 145.971 362.08 146.169 361.676 146.308" stroke="#263238" stroke-linecap="round" stroke-linejoin="round"/>
<path d="M366.826 118.144C364.685 111.48 362.147 104.949 359.226 98.5865C354.89 98.4818 347.742 101.173 350.232 106.532C351.465 108.506 354.608 109.578 354.109 111.81C345.743 116.017 334.879 113.946 327.271 120.376C325.925 121.348 324.692 122.467 323.595 123.713C321.339 126.316 323.595 129.2 326.529 130.312C326.644 130.357 326.737 130.446 326.787 130.56C326.837 130.673 326.84 130.801 326.795 130.917C325.554 131.771 323.902 132.214 322.765 133.334C321.395 135.671 325.183 134.608 326.312 135.236C330.108 136.437 328.423 140.724 324.345 140.877C323.595 142.593 329.108 141.739 330.228 141.361C334.258 141.312 339.094 135.599 333.895 133.528C337.632 133.079 341.327 132.333 344.945 131.296C346.992 130.675 349.458 130.111 350.587 128.072C351.393 126.461 350.24 123.89 348.451 124.228C354.463 121.867 360.87 120.723 366.826 118.144Z" fill="white"/>
<path opacity="0.2" d="M326.98 48.4391C266.696 94.2592 185.94 100.585 112.695 94.6621C100.856 93.9529 86.2765 91.3098 81.0137 79.3511C149.439 -12.7806 270.226 -24.9811 326.98 48.4391Z" fill="black"/>
<path d="M330.156 40.429L59.785 41.662C62.896 37.1251 66.2326 30.3802 72.6802 30.8153H317.341C323.184 30.3721 326.972 36.5207 330.156 40.429Z" fill="white" stroke="#263238" stroke-linecap="round" stroke-linejoin="round"/>
<path d="M184.868 80.9467C205.42 79.0852 226.253 84.0492 227.204 108.466C229.074 129.015 224.109 149.846 199.681 150.797C179.138 152.666 158.296 147.702 157.345 123.277C155.483 102.737 160.448 81.8976 184.868 80.9467Z" fill="#757575" stroke="#263238" stroke-linecap="round" stroke-linejoin="round"/>
<path d="M170.055 121.779C170.458 126.477 167.943 137.509 175.696 137.347H209.764C217.71 137.912 215.059 123.543 215.687 121.779H170.055Z" fill="#999999" stroke="#263238" stroke-linecap="round" stroke-linejoin="round"/>
<path d="M294.726 125.091H95.4884C89.4035 129.12 62.4446 44.7564 60.0268 42.9835C59.877 42.5989 59.8044 42.1885 59.8132 41.7757C59.822 41.363 59.9121 40.9561 60.0783 40.5782C60.2444 40.2003 60.4834 39.8588 60.7816 39.5733C61.0797 39.2877 61.4312 39.0637 61.816 38.914C62.2351 38.1485 326.561 39.0107 327.295 38.6965C328.127 38.6965 328.925 39.0265 329.514 39.6141C330.104 40.2017 330.436 40.9991 330.438 41.8312C328.254 44.3212 300.892 128.515 294.726 125.091Z" fill="#BFBFBF" stroke="#263238" stroke-linecap="round" stroke-linejoin="round"/>
<path d="M296.201 118.225H93.53L65.6443 43.6927H323.958L296.201 118.225Z" fill="#263238"/>
<path d="M215.437 124.986H170.256V128.08H215.437V124.986Z" fill="#263238"/>
<path d="M266.599 115.058H123.479C122.673 115.058 121.948 114.703 121.803 114.252L101.444 49.5511C101.219 48.8259 101.855 48.2376 102.871 48.2376C104.314 49.535 289.044 45.7637 288.625 49.5511L268.275 114.252C268.09 114.521 267.838 114.737 267.544 114.878C267.25 115.02 266.924 115.082 266.599 115.058Z" fill="#22252E"/>
<path d="M266.067 113.551H124.011L106.707 56.7312H283.371L266.067 113.551Z" fill="#263238"/>
<path d="M144.401 70.8414H117.507C115.702 70.8898 116.798 72.6465 117.95 72.4531H144.691C146.368 72.4128 145.828 70.7689 144.401 70.8414Z" fill="white"/>
<path d="M145.296 75.749H122.423C121.77 75.749 121.335 76.0955 121.456 76.5548C120.989 78.1665 144.974 76.99 145.578 77.3607C147.246 77.2801 146.682 75.749 145.296 75.749Z" fill="white"/>
<path opacity="0.5" d="M146.166 80.4873H120.215C119.57 80.4873 119.151 80.8258 119.264 81.2287C118.273 82.6873 146.166 81.7042 146.424 81.9701C148.028 81.9379 147.545 80.4309 146.166 80.4873Z" fill="white"/>
<path d="M147.005 85.0645C146.473 85.4272 130.192 84.2103 130.797 85.7817C130.442 87.2564 146.634 86.2008 147.27 86.4989C148.866 86.4586 148.35 85.0081 147.005 85.0645Z" fill="white"/>
<path d="M147.819 89.4483H122.738C121.126 89.5128 121.883 90.923 123.132 90.8343H148.068C149.64 90.8343 149.148 89.4483 147.819 89.4483Z" fill="white"/>
<path d="M148.6 93.7595H128.355C127.742 93.7595 127.331 94.0577 127.428 94.4284C127.114 95.8547 148.246 94.791 148.85 95.0972C150.382 95.0892 149.906 93.7031 148.6 93.7595Z" fill="white"/>
<path d="M149.358 97.8935C148.794 98.2561 128.073 97.0876 128.532 98.5382C128.218 99.9323 149.019 98.8927 149.6 99.1909C151.107 99.1587 150.647 97.8371 149.358 97.8935Z" fill="white"/>
<path d="M150.091 101.89H128.331C126.808 101.947 127.477 103.212 128.669 103.148C128.145 102.745 156.861 104.292 150.091 101.89Z" fill="white"/>
<path opacity="0.5" d="M150.809 105.767C150.349 106.081 135.334 105.033 135.866 106.379C135.496 107.62 150.502 106.734 151.026 106.983C152.493 106.951 152.058 105.726 150.809 105.767Z" fill="white"/>
<path opacity="0.5" d="M143.458 65.7485C142.943 66.1756 121.585 64.7654 122.407 66.5544C122.077 68.2627 143.031 66.9976 143.757 67.3602C145.562 67.3521 144.708 65.5632 143.458 65.7485Z" fill="white"/>
<path d="M142.491 60.438H114.589C112.728 60.5025 113.864 62.3479 115.073 62.1545H142.806C144.635 62.1706 143.781 60.2849 142.491 60.438Z" fill="white"/>
<path d="M151.518 109.522H128.371C127.799 109.522 127.412 109.788 127.501 110.11C127.589 110.432 128.129 110.698 128.702 110.698H151.711C153.13 110.674 152.735 109.473 151.518 109.522Z" fill="white"/>
<path opacity="0.5" d="M153.847 72.6304H159.061L158.804 70.64H153.549L153.847 72.6304Z" fill="white"/>
<path opacity="0.5" d="M154.572 77.4816H159.698L159.448 75.5556H154.282L154.572 77.4816Z" fill="white"/>
<path opacity="0.5" d="M155.274 82.1554H160.311L160.069 80.302H155L155.274 82.1554Z" fill="white"/>
<path opacity="0.5" d="M155.951 86.6762H160.907L160.665 84.8872H155.685L155.951 86.6762Z" fill="white"/>
<path opacity="0.5" d="M156.611 91.0439H161.479L161.246 89.3113H156.354L156.611 91.0439Z" fill="white"/>
<path opacity="0.5" d="M157.24 95.2665H162.027L161.81 93.5903H156.99L157.24 95.2665Z" fill="white"/>
<path opacity="0.5" d="M157.861 99.3521H162.567L162.358 97.7323H157.619L157.861 99.3521Z" fill="white"/>
<path opacity="0.5" d="M158.449 103.301H163.083L162.882 101.737H158.215L158.449 103.301Z" fill="white"/>
<path opacity="0.5" d="M159.029 107.136H163.591L163.389 105.613H158.796L159.029 107.136Z" fill="white"/>
<path opacity="0.5" d="M153.089 67.61H158.401L158.135 65.5471H152.783L153.089 67.61Z" fill="white"/>
<path opacity="0.5" d="M152.308 62.3962H157.716L157.442 60.2527H151.985L152.308 62.3962Z" fill="white"/>
<path opacity="0.5" d="M159.585 110.851H164.075L163.881 109.377H159.36L159.585 110.851Z" fill="white"/>
<path d="M187.076 102.519C187.076 102.172 187.528 101.89 188.116 101.89C188.994 102.495 266.156 100.722 266.228 102.519C266.102 102.731 265.919 102.902 265.699 103.014C265.479 103.125 265.232 103.171 264.987 103.148C263.923 102.559 187.495 104.3 187.076 102.519Z" fill="white"/>
<path d="M266.123 99.1909H223.36C222.764 99.1909 222.312 98.9008 222.352 98.5382C222.393 98.1755 222.909 97.8935 223.513 97.8935H266.494C268.138 97.9338 267.131 99.3682 266.123 99.1909Z" fill="white"/>
<path opacity="0.5" d="M213.213 99.1909C212.681 98.9008 198.392 99.9162 198.859 98.5382C198.376 97.1924 212.818 98.1836 213.31 97.8935C214.769 97.9016 214.559 99.2151 213.213 99.1909Z" fill="white"/>
<path d="M240.978 95.0892C239.874 94.4767 179.952 96.2979 179.532 94.4203C179.831 92.5105 240.188 94.4203 241.236 93.7515C242.751 93.7918 242.283 95.1536 240.978 95.0892Z" fill="white"/>
<path opacity="0.5" d="M168.04 93.7595H172.343C173.714 93.7595 173.955 95.0892 172.464 95.0972H168.185C166.831 95.1375 166.549 93.7757 168.04 93.7595Z" fill="white"/>
<path d="M249.698 90.1816C249.618 90.5604 249.053 90.8666 248.433 90.8666C247.297 90.2219 190.904 92.1237 190.477 90.1816C190.477 89.8029 190.961 89.4805 191.573 89.4805C192.573 90.1494 249.561 88.1912 249.698 90.1816Z" fill="white"/>
<path d="M167.588 89.4483H183.707C185.126 89.4483 185.263 90.8424 183.772 90.8343H167.733C166.371 90.9069 166.025 89.5047 167.588 89.4483Z" fill="white"/>
<path d="M167.113 85.0645C168.169 85.7495 229.977 83.7429 230.162 85.7817C228.719 87.9414 169.128 85.7334 167.298 86.4989C165.896 86.5392 165.557 85.0806 167.113 85.0645Z" fill="white"/>
<path d="M207.37 81.9701C205.855 81.9701 205.968 80.4632 207.442 80.4873H240.172C240.817 80.4873 241.276 80.8258 241.204 81.2287C241.131 81.6316 240.559 81.9701 239.922 81.9701H207.37Z" fill="white"/>
<path d="M166.629 80.4873H194.942C195.587 80.4873 196.103 80.8258 196.103 81.2287C196.103 81.6316 195.579 81.9701 194.942 81.9701H166.831C165.38 82.0184 165.042 80.5035 166.629 80.4873Z" fill="white"/>
<path d="M272.41 77.2882C271.273 76.5548 193.604 78.7145 193.298 76.4823C193.564 74.2179 271.709 76.4259 272.853 75.6765C274.594 75.749 273.57 77.4816 272.41 77.2882Z" fill="white"/>
<path d="M273.796 72.437C272.66 71.7037 204.283 73.8875 204.057 71.6312C204.404 69.3506 273.046 71.6312 274.263 70.8253C276.053 70.914 274.957 72.6304 273.796 72.437Z" fill="white"/>
<path opacity="0.5" d="M275.247 67.4005C274.755 67.0379 258.983 68.295 259.853 66.5947C259.748 64.9346 274.828 66.1273 275.69 65.7888C277.528 65.8452 276.44 67.5778 275.247 67.4005Z" fill="white"/>
<path d="M250.835 67.4005H198.102C197.433 67.4005 196.885 67.0379 196.893 66.5947C196.901 66.1514 197.441 65.7888 198.118 65.7888H251.165C252.97 65.8211 252.068 67.5858 250.835 67.4005Z" fill="white"/>
<path d="M169.305 105.767C170.296 106.331 218.693 104.663 218.992 106.379C218.951 106.717 218.468 106.983 217.888 106.983H169.458C168.193 107.024 167.887 105.791 169.305 105.767Z" fill="white"/>
<path d="M169.724 109.522C170.619 110.086 245.266 108.426 245.483 110.11C244.887 111.794 171.022 110.11 169.885 110.698C168.604 110.739 168.306 109.53 169.724 109.522Z" fill="white"/>
<path d="M248.231 62.1867H210.126C209.441 62.1867 208.909 61.7999 208.933 61.3325C208.958 60.8651 209.546 60.438 210.223 60.438H248.538C250.367 60.4944 249.505 62.364 248.231 62.1867Z" fill="white"/>
<path opacity="0.5" d="M199.327 62.1867H164.671C163.986 62.1867 163.381 61.7999 163.333 61.3325C163.285 60.8651 163.792 60.4703 164.486 60.4703H199.343C200.955 60.438 200.938 62.2109 199.327 62.1867Z" fill="white"/>
<path opacity="0.5" d="M228.824 105.767C230.275 105.767 229.936 107.032 228.655 106.983H224.915C223.497 106.983 223.795 105.734 225.069 105.767H228.824Z" fill="white"/>
<path opacity="0.5" d="M182.635 102.519C182.635 102.866 182.192 103.148 181.604 103.148C180.798 102.922 175.559 103.744 175.366 102.519C175.366 102.173 175.793 101.89 176.381 101.89C177.179 102.124 182.466 101.294 182.635 102.519Z" fill="white"/>
<path opacity="0.5" d="M244.492 85.7817C244.226 87.1758 238.157 86.2491 237.238 86.4989C236.61 86.4989 236.158 86.1766 236.215 85.7817C236.457 84.3876 242.59 85.3224 243.468 85.0645C244.121 85.0645 244.572 85.4191 244.492 85.7817Z" fill="white"/>
<path opacity="0.5" d="M263.198 89.4483C264.89 89.4483 263.899 91.0197 262.835 90.8343C262.158 90.5845 256.952 91.4871 257.105 90.1494C257.597 88.8439 262.182 89.7223 263.198 89.4483Z" fill="white"/>
<path opacity="0.5" d="M185.029 77.2882C183.522 77.2882 183.417 75.741 184.973 75.6765C185.867 75.9505 191.17 74.9593 191.251 76.4823C191.211 77.9973 185.875 77.0222 185.029 77.2882Z" fill="white"/>
<path d="M115.766 52.4763C116.725 56.0381 111.39 55.1437 110.93 52.4763C109.947 48.9226 115.291 49.809 115.766 52.4763Z" fill="white"/>
<path d="M122.326 52.5166C123.132 57.9641 114.09 52.7745 118.482 50.22C119.296 50.0302 120.151 50.1635 120.868 50.5919C121.585 51.0203 122.108 51.7104 122.326 52.5166Z" fill="white"/>
<path d="M128.951 52.4763C129.556 58.0044 120.626 52.5972 125.244 50.1555C126.042 49.9915 126.872 50.1411 127.563 50.5733C128.253 51.0055 128.75 51.6871 128.951 52.4763Z" fill="white"/>
<path opacity="0.1" d="M65.6443 43.6927L87.3645 101.737L113.566 43.6927H65.6443Z" fill="white"/>
<path opacity="0.1" d="M102.291 118.225L145.755 43.6927H191.251L127.283 118.225H102.291Z" fill="white"/>
<path opacity="0.1" d="M210.86 43.322L143.112 118.225H153.549L223.723 43.6927L210.86 43.322Z" fill="white"/>
<path opacity="0.1" d="M224.238 118.225L298.692 43.6927H309.201L232.435 118.225H224.238Z" fill="white"/>
<path d="M288.061 177.72H102.154V256.007H288.061V177.72Z" fill="#31353F"/>
<path d="M123.527 182.458H106.038V192.137H123.527V182.458Z" fill="white" stroke="#263238" stroke-miterlimit="10"/>
<path d="M283.758 229.648H256.21V239.327H283.758V229.648Z" fill="white" stroke="#263238" stroke-miterlimit="10"/>
<path d="M283.758 194.546H266.752V204.224H283.758V194.546Z" fill="white" stroke="#263238" stroke-miterlimit="10"/>
<path d="M123.527 217.714H106.038V227.392H123.527V217.714Z" fill="white" stroke="#263238" stroke-miterlimit="10"/>
<path d="M120.199 206.053H106.038V215.732H120.199V206.053Z" fill="white" stroke="#263238" stroke-miterlimit="10"/>
<path d="M115.718 194.256H106.038V203.934H115.718V194.256Z" fill="white" stroke="#263238" stroke-miterlimit="10"/>
<path d="M128.081 194.256H118.402V203.934H128.081V194.256Z" fill="white" stroke="#263238" stroke-miterlimit="10"/>
<path d="M140.436 194.256H130.757V203.934H140.436V194.256Z" fill="white" stroke="#263238" stroke-miterlimit="10"/>
<path d="M152.791 194.256H143.112V203.934H152.791V194.256Z" fill="white" stroke="#263238" stroke-miterlimit="10"/>
<path d="M165.155 194.256H155.475V203.934H165.155V194.256Z" fill="white" stroke="#263238" stroke-miterlimit="10"/>
<path d="M177.51 194.256H167.83V203.934H177.51V194.256Z" fill="white" stroke="#263238" stroke-miterlimit="10"/>
<path d="M189.865 194.256H180.185V203.934H189.865V194.256Z" fill="white" stroke="#263238" stroke-miterlimit="10"/>
<path d="M202.228 194.256H192.549V203.934H202.228V194.256Z" fill="white" stroke="#263238" stroke-miterlimit="10"/>
<path d="M214.583 194.256H204.904V203.934H214.583V194.256Z" fill="white" stroke="#263238" stroke-miterlimit="10"/>
<path d="M226.938 194.256H217.259V203.934H226.938V194.256Z" fill="white" stroke="#263238" stroke-miterlimit="10"/>
<path d="M239.302 194.256H229.622V203.934H239.302V194.256Z" fill="white" stroke="#263238" stroke-miterlimit="10"/>
<path d="M251.657 194.256H241.977V203.934H251.657V194.256Z" fill="white" stroke="#263238" stroke-miterlimit="10"/>
<path d="M264.02 194.256H254.341V203.934H264.02V194.256Z" fill="white" stroke="#263238" stroke-miterlimit="10"/>
<path d="M115.718 241.591H106.038V251.269H115.718V241.591Z" fill="white" stroke="#263238" stroke-miterlimit="10"/>
<path d="M128.081 241.591H118.402V251.269H128.081V241.591Z" fill="white" stroke="#263238" stroke-miterlimit="10"/>
<path d="M140.436 241.591H130.757V251.269H140.436V241.591Z" fill="white" stroke="#263238" stroke-miterlimit="10"/>
<path d="M154.927 241.591H143.112V251.269H154.927V241.591Z" fill="white" stroke="#263238" stroke-miterlimit="10"/>
<path d="M216.719 241.591H157.603V251.269H216.719V241.591Z" fill="white" stroke="#263238" stroke-miterlimit="10"/>
<path d="M246.273 241.591H236.594V251.269H246.273V241.591Z" fill="white" stroke="#263238" stroke-miterlimit="10"/>
<path d="M258.628 241.591H248.949V251.269H258.628V241.591Z" fill="white" stroke="#263238" stroke-miterlimit="10"/>
<path d="M271.008 241.591H261.328V251.269H271.008V241.591Z" fill="white" stroke="#263238" stroke-miterlimit="10"/>
<path d="M234.168 241.591H219.137V251.269H234.168V241.591Z" fill="white" stroke="#263238" stroke-miterlimit="10"/>
<path d="M283.758 241.591H274.078V251.269H283.758V241.591Z" fill="white" stroke="#263238" stroke-miterlimit="10"/>
<path d="M132.627 206.053H122.947V215.732H132.627V206.053Z" fill="white" stroke="#263238" stroke-miterlimit="10"/>
<path d="M144.982 206.053H135.302V215.732H144.982V206.053Z" fill="white" stroke="#263238" stroke-miterlimit="10"/>
<path d="M157.345 206.053H147.666V215.732H157.345V206.053Z" fill="white" stroke="#263238" stroke-miterlimit="10"/>
<path d="M169.7 206.053H160.021V215.732H169.7V206.053Z" fill="white" stroke="#263238" stroke-miterlimit="10"/>
<path d="M182.063 206.053H172.384V215.732H182.063V206.053Z" fill="white" stroke="#263238" stroke-miterlimit="10"/>
<path d="M194.418 206.053H184.739V215.732H194.418V206.053Z" fill="white" stroke="#263238" stroke-miterlimit="10"/>
<path d="M206.774 206.053H197.094V215.732H206.774V206.053Z" fill="white" stroke="#263238" stroke-miterlimit="10"/>
<path d="M219.137 206.053H209.457V215.732H219.137V206.053Z" fill="white" stroke="#263238" stroke-miterlimit="10"/>
<path d="M231.492 206.053H221.812V215.732H231.492V206.053Z" fill="white" stroke="#263238" stroke-miterlimit="10"/>
<path d="M243.847 206.053H234.168V215.732H243.847V206.053Z" fill="white" stroke="#263238" stroke-miterlimit="10"/>
<path d="M256.21 206.053H246.531V215.732H256.21V206.053Z" fill="white" stroke="#263238" stroke-miterlimit="10"/>
<path d="M268.566 206.053H258.886V215.732H268.566V206.053Z" fill="white" stroke="#263238" stroke-miterlimit="10"/>
<path d="M283.758 206.053V227.537H274.078V215.74H271.241V206.053H283.758Z" fill="white" stroke="#263238" stroke-miterlimit="10"/>
<path d="M135.463 217.851H125.784V227.529H135.463V217.851Z" fill="white" stroke="#263238" stroke-miterlimit="10"/>
<path d="M147.819 217.851H138.139V227.529H147.819V217.851Z" fill="white" stroke="#263238" stroke-miterlimit="10"/>
<path d="M160.174 217.851H150.494V227.529H160.174V217.851Z" fill="white" stroke="#263238" stroke-miterlimit="10"/>
<path d="M172.537 217.851H162.858V227.529H172.537V217.851Z" fill="white" stroke="#263238" stroke-miterlimit="10"/>
<path d="M184.892 217.851H175.213V227.529H184.892V217.851Z" fill="white" stroke="#263238" stroke-miterlimit="10"/>
<path d="M197.255 217.851H187.576V227.529H197.255V217.851Z" fill="white" stroke="#263238" stroke-miterlimit="10"/>
<path d="M209.611 217.851H199.931V227.529H209.611V217.851Z" fill="white" stroke="#263238" stroke-miterlimit="10"/>
<path d="M221.966 217.851H212.286V227.529H221.966V217.851Z" fill="white" stroke="#263238" stroke-miterlimit="10"/>
<path d="M234.329 217.851H224.649V227.529H234.329V217.851Z" fill="white" stroke="#263238" stroke-miterlimit="10"/>
<path d="M246.684 217.851H237.005V227.529H246.684V217.851Z" fill="white" stroke="#263238" stroke-miterlimit="10"/>
<path d="M259.039 217.851H249.36V227.529H259.039V217.851Z" fill="white" stroke="#263238" stroke-miterlimit="10"/>
<path d="M271.402 217.851H261.723V227.529H271.402V217.851Z" fill="white" stroke="#263238" stroke-miterlimit="10"/>
<path d="M130.209 229.648H120.529V239.327H130.209V229.648Z" fill="white" stroke="#263238" stroke-miterlimit="10"/>
<path d="M142.564 229.648H132.884V239.327H142.564V229.648Z" fill="white" stroke="#263238" stroke-miterlimit="10"/>
<path d="M154.927 229.648H145.248V239.327H154.927V229.648Z" fill="white" stroke="#263238" stroke-miterlimit="10"/>
<path d="M167.282 229.648H157.603V239.327H167.282V229.648Z" fill="white" stroke="#263238" stroke-miterlimit="10"/>
<path d="M179.637 229.648H169.958V239.327H179.637V229.648Z" fill="white" stroke="#263238" stroke-miterlimit="10"/>
<path d="M192.001 229.648H182.321V239.327H192.001V229.648Z" fill="white" stroke="#263238" stroke-miterlimit="10"/>
<path d="M204.356 229.648H194.676V239.327H204.356V229.648Z" fill="white" stroke="#263238" stroke-miterlimit="10"/>
<path d="M216.719 229.648H207.04V239.327H216.719V229.648Z" fill="white" stroke="#263238" stroke-miterlimit="10"/>
<path d="M229.074 229.648H219.395V239.327H229.074V229.648Z" fill="white" stroke="#263238" stroke-miterlimit="10"/>
<path d="M241.429 229.648H231.75V239.327H241.429V229.648Z" fill="white" stroke="#263238" stroke-miterlimit="10"/>
<path d="M253.792 229.648H244.113V239.327H253.792V229.648Z" fill="white" stroke="#263238" stroke-miterlimit="10"/>
<path d="M135.463 183.039H125.784V192.717H135.463V183.039Z" fill="white" stroke="#263238" stroke-miterlimit="10"/>
<path d="M147.819 183.039H138.139V192.717H147.819V183.039Z" fill="white" stroke="#263238" stroke-miterlimit="10"/>
<path d="M160.174 183.039H150.494V192.717H160.174V183.039Z" fill="white" stroke="#263238" stroke-miterlimit="10"/>
<path d="M172.537 183.039H162.858V192.717H172.537V183.039Z" fill="white" stroke="#263238" stroke-miterlimit="10"/>
<path d="M184.892 183.039H175.213V192.717H184.892V183.039Z" fill="white" stroke="#263238" stroke-miterlimit="10"/>
<path d="M197.255 183.039H187.576V192.717H197.255V183.039Z" fill="white" stroke="#263238" stroke-miterlimit="10"/>
<path d="M209.611 183.039H199.931V192.717H209.611V183.039Z" fill="white" stroke="#263238" stroke-miterlimit="10"/>
<path d="M221.966 183.039H212.286V192.717H221.966V183.039Z" fill="white" stroke="#263238" stroke-miterlimit="10"/>
<path d="M234.329 183.039H224.649V192.717H234.329V183.039Z" fill="white" stroke="#263238" stroke-miterlimit="10"/>
<path d="M246.684 183.039H237.005V192.717H246.684V183.039Z" fill="white" stroke="#263238" stroke-miterlimit="10"/>
<path d="M259.039 183.039H249.36V192.717H259.039V183.039Z" fill="white" stroke="#263238" stroke-miterlimit="10"/>
<path d="M271.402 183.039H261.723V192.717H271.402V183.039Z" fill="white" stroke="#263238" stroke-miterlimit="10"/>
<path d="M283.758 183.039H274.078V192.717H283.758V183.039Z" fill="white" stroke="#263238" stroke-miterlimit="10"/>
<path d="M117.765 229.648H106.038V239.327H117.765V229.648Z" fill="white" stroke="#263238" stroke-miterlimit="10"/>
<path d="M102.154 178.22L106.038 176.93H285.539L288.094 178.204L102.154 178.22Z" fill="#263238"/>
<path opacity="0.2" d="M86.0267 162.151C85.0596 168.485 79.9821 173.038 73.9375 174.464C65.9667 186.069 51.371 189.107 40.257 180.831L31.4319 170.355C28.6111 170.903 25.4195 170.556 23.3241 168.542C22.2038 173.377 15.2646 169.227 18.8833 165.923C17.1102 167.486 14.37 166.728 12.6614 165.06C12.3713 151.788 17.4245 138.838 25.5565 128.443C32.3265 122.238 39.6122 116.541 46.8899 110.932C49.8155 111.013 50.7988 113.599 52.4671 115.372C54.4497 117.185 56.3517 114.139 59.4063 114.236C68.7956 114.526 65.1527 124.156 69.7385 122.947C89.5406 117.725 86.2121 143.093 77.6046 148.613C82.6337 152.779 87.0422 155.527 86.0267 162.151Z" fill="black"/>
<path style="mix-blend-mode:soft-light" d="M43.4485 120.264C87.3565 121.013 87.3484 185.488 43.4485 186.23C-0.451385 185.488 -0.443324 121.005 43.4485 120.264Z" fill="url(#paint0_radial_10_3010)"/>
<path d="M43.4485 121.835C83.4799 122.52 83.4718 181.306 43.4485 181.983C3.42524 181.314 3.43329 122.488 43.4485 121.835Z" fill="#263238" stroke="white" stroke-miterlimit="10"/>
<path d="M75.63 149.016C80.651 150.33 79.4502 160.951 74.2518 161.104C76.0088 164.23 70.9233 172.901 69.263 166.535C68.1266 171.241 62.7187 171.434 62.0095 166.438C60.5669 170.999 55.2879 172.353 53.1441 168.687C48.5663 175.254 42.5701 174.473 36.6705 172.418C33.5596 172.514 30.7227 176.987 27.4505 176.068C25.9192 175.593 24.7667 173.119 25.6452 171.233C22.6793 173.489 18.6496 169.621 19.3669 165.189C19.2218 167.188 16.8523 167.518 16.4574 166.93C17.1908 168.139 15.5548 170.032 14.7327 168.396C11.5089 176.31 5.86728 167.301 10.703 163.771C6.44756 162.546 7.43888 153.633 11.8232 153.295C7.0762 153.295 7.60007 144.028 11.8232 143.536C5.74639 140.587 10.1469 125.574 17.4648 131.03C16.5058 125.163 21.9943 117.064 27.8051 121.706C28.1839 113.938 37.009 108.764 40.9582 116.718C40.9098 116.799 41.0468 116.911 40.9582 116.718C41.9898 114.607 44.9879 115.227 45.2136 117.741C44.593 110.876 53.0232 107.346 54.3208 115.404C59.0678 113.325 61.0827 120.61 58.8824 123.906C63.2184 116.597 71.5197 119.82 72.1483 127.419C83.1172 121.682 85.9703 145.253 75.63 149.016Z" fill="#191B21"/>
<g opacity="0.2">
<path d="M41.4256 152.207C37.831 148.629 33.213 155.809 37.3152 157.743C39.177 157.953 40.9984 155.866 42.8843 157.195C52.5557 156.623 53.6598 141.884 42.0784 151.965C42.1348 151.554 42.1912 151.16 42.2557 150.741L41.4256 152.207Z" fill="white"/>
<path d="M70.5364 148.275C68.3925 145.575 65.1929 148.67 67.4415 151.047C71.0199 154.109 75.6138 149.669 70.3429 147.67L70.5364 148.275Z" fill="white"/>
<path d="M24.9843 131.771C22.7196 133.31 20.06 137.098 21.5349 139.749C22.3408 140.377 27.2329 137.952 28.1356 137.815C25.0972 138.621 22.776 144.326 27.1685 144.705C28.4165 144.412 29.5476 143.751 30.4145 142.806C31.2813 141.862 31.8436 140.679 32.0283 139.41C32.0283 137.96 30.6582 136.695 29.7636 137.678C32.9874 136.066 38.4195 133.471 37.4201 129.128C35.6792 125.026 33.2695 131.344 32.1411 131.964C30.0215 133.173 27.6843 130.175 24.9843 131.771Z" fill="white"/>
<path d="M16.3607 150.265C15.6434 151.716 17.5696 154.133 18.4964 152.038C12.1214 154.641 13.6204 164.335 23.6303 152.763C23.1951 162.248 38.3469 148.371 29.2719 147.308C27.4747 147.686 26.3705 149.379 25.2422 150.966C26.6607 147.082 21.8492 146.276 20.3259 149.556C24.1783 144.979 18.5367 143.48 16.3607 150.265Z" fill="white"/>
<path d="M57.0932 141.723C54.1676 140.668 53.0635 146.615 55.9166 147.034C51.8868 147.759 52.5719 154.061 56.7789 150.95C51.2098 152.473 55.0461 157.622 59.6078 151.667C64.1291 157.131 66.8613 145.567 60.1317 148.96C63.8874 146.01 61.6549 140.579 58.3586 146.47C57.3511 145.317 59.3176 142.634 57.0932 141.723Z" fill="white"/>
<path d="M38.2259 137.299C35.9209 139.483 35.9934 145.607 38.7981 147.187C45.423 149.25 44.7621 133.971 38.2259 137.299Z" fill="white"/>
<path d="M51.7014 134.285L52.1849 134.801C46.7045 129.966 46.6562 144.06 52.1043 138.613C55.8842 140.603 58.6245 134.414 55.8439 132.303C54.5625 131.425 52.4751 132.988 52.6202 134.922L52.056 134.116L51.7014 134.285Z" fill="white"/>
<path d="M66.4744 136.429C64.5723 138.29 62.501 143.367 65.5556 144.705C69.3193 145.631 72.0031 134.019 66.8854 136.799L66.4744 136.429Z" fill="white"/>
<path d="M45.2861 127.814C43.6742 124.333 40.12 128.459 41.2564 130.973C42.0623 134.495 47.301 133.608 46.898 130.022C49.4851 133.399 55.0945 128.781 55.0622 125.405C54.9736 122.343 51.0889 122.351 49.6946 124.543C48.5824 125.776 47.1559 128.572 45.1974 127.565L45.2861 127.814Z" fill="white"/>
</g>
<path opacity="0.2" d="M234.853 312.489L231.073 289.724C227.478 276.75 208.168 270.021 208.071 256.636C207.418 242.131 205.154 242.542 205.395 238.956C207.21 236.005 208.459 232.742 209.079 229.334C209.675 226.49 213.302 226.514 215.035 228.319C217.896 231.236 217.203 235.652 216.276 239.246C217.54 242.452 218.354 245.817 218.694 249.246C219.556 246.587 220.209 243.904 221.071 241.253C221.248 241.156 221.184 240.946 221.353 240.85C218.129 228.577 210.545 216.07 206.951 201.492C205.549 196.843 210.336 193.523 213.334 197.463C217.42 207.093 224.795 218.762 230.791 227.465C230.791 227.465 233.845 224.958 234.313 223.838C234.772 222.71 234.998 213.628 234.998 213.628C232.846 217.795 223.803 214.152 227.648 208.729C233.152 199.268 237.537 201.001 244.879 207.528C249.045 206.464 255.985 211.992 256.75 213.975C256.75 213.975 260.031 214.176 261.505 215.248C261.876 215.514 266.881 223.306 265.076 229.374C264.004 232.993 263.343 238.239 262.859 239.657L260.442 275.186L265.398 298.556C256.202 303.947 245.112 309.58 234.853 312.489Z" fill="black"/>
<path d="M264.947 270.972L265.043 235.346C265.43 233.911 265.745 228.625 266.567 224.942C267.969 218.77 262.456 211.324 262.07 211.082C260.522 210.123 257.234 210.139 257.234 210.139C256.299 208.221 249.054 203.209 244.959 204.498C237.174 198.454 232.693 197.044 227.849 206.859C224.367 212.5 233.62 215.562 235.506 211.275C235.506 211.275 235.884 220.349 235.506 221.501C235.111 222.654 232.225 225.353 232.225 225.353C225.617 217.045 217.533 205.957 212.786 196.585C209.562 192.91 204.976 196.496 206.685 201.065C211.222 215.353 219.661 227.368 223.674 239.375C223.513 239.488 223.594 239.697 223.416 239.802C222.739 242.51 222.264 245.225 221.579 247.933C221.014 244.533 219.975 241.229 218.492 238.118C219.185 234.467 219.572 230.003 216.501 227.295C214.648 225.619 210.997 225.813 210.594 228.714C210.201 232.145 209.173 235.473 207.563 238.529C207.563 242.123 209.788 241.535 211.408 255.991C212.665 267.273 227.172 274.695 235.07 282.826L243.484 309.306C253.345 305.325 262.793 300.388 271.693 294.567L264.947 270.972Z" fill="#191B21"/>
<path d="M260.82 222.565C261.384 220.551 263.697 218.044 265.753 219.882C264.383 216.481 262.883 207.222 257.564 210.606C259.595 216.844 255.864 224.306 258.644 229.947C259.668 230.446 259.99 228.681 258.733 228.972C259.252 226.783 259.95 224.64 260.82 222.565Z" fill="white"/>
<path d="M260.82 222.565C261.384 220.551 263.697 218.044 265.753 219.882C264.383 216.481 262.883 207.222 257.564 210.606C259.595 216.844 255.864 224.306 258.644 229.947C259.668 230.446 259.99 228.681 258.733 228.972C259.252 226.783 259.95 224.64 260.82 222.565Z" fill="white"/>
<path opacity="0.5" d="M260.82 222.565C261.384 220.551 263.697 218.044 265.753 219.882C264.383 216.481 262.883 207.222 257.564 210.606C259.595 216.844 255.864 224.306 258.644 229.947C259.668 230.446 259.99 228.681 258.733 228.972C259.252 226.783 259.95 224.64 260.82 222.565Z" fill="white"/>
<path d="M247.957 218.745C248.006 221.727 248.11 225.386 250.972 227.086C250.166 224.088 250.601 220.905 251.036 217.835C251.737 216.054 250.923 209.059 254.115 209.712C250.44 210.453 251.81 203.265 245.588 204.957C246.063 209.591 247.772 213.991 247.957 218.745Z" fill="white"/>
<path d="M247.957 218.745C248.006 221.727 248.11 225.386 250.972 227.086C250.166 224.088 250.601 220.905 251.036 217.835C251.737 216.054 250.923 209.059 254.115 209.712C250.44 210.453 251.81 203.265 245.588 204.957C246.063 209.591 247.772 213.991 247.957 218.745Z" fill="white"/>
<g opacity="0.5">
<path d="M247.957 218.745C248.006 221.727 248.11 225.386 250.972 227.086C250.166 224.088 250.601 220.905 251.036 217.835C251.737 216.054 250.923 209.059 254.115 209.712C250.44 210.453 251.81 203.265 245.588 204.957C246.063 209.591 247.772 213.991 247.957 218.745Z" fill="white"/>
</g>
<path d="M234.804 206.295C233.749 205.433 234.184 203.765 233.007 202.991C230.154 205.489 232.201 209.736 228.01 211.654C228.204 216.94 237.988 211.912 236.07 206.295C235.878 206.409 235.66 206.47 235.437 206.47C235.214 206.47 234.996 206.409 234.804 206.295Z" fill="white"/>
<path d="M209.07 236.45C208.861 238.327 211.641 233.581 214.583 235.072C216.26 234.516 214.503 232.598 213.229 232.993C211.803 233.251 210.102 232.267 210.521 230.648C210.11 232.59 209.602 234.5 209.07 236.45Z" fill="white"/>
<g opacity="0.5">
<path d="M234.804 206.295C233.749 205.433 234.184 203.765 233.007 202.991C230.154 205.489 232.201 209.736 228.01 211.654C228.204 216.94 237.988 211.912 236.07 206.295C235.878 206.409 235.66 206.47 235.437 206.47C235.214 206.47 234.996 206.409 234.804 206.295Z" fill="white"/>
<path d="M209.07 236.45C208.861 238.327 211.641 233.581 214.583 235.072C216.26 234.516 214.503 232.598 213.229 232.993C211.803 233.251 210.102 232.267 210.521 230.648C210.11 232.59 209.602 234.5 209.07 236.45Z" fill="white"/>
</g>
<path d="M241.889 205.707C236.449 206.368 233.926 197.769 229.727 204.546C231.419 190.775 254.977 210.445 241.889 205.707Z" fill="white"/>
<path d="M241.889 205.707C236.449 206.368 233.926 197.769 229.727 204.546C231.419 190.775 254.977 210.445 241.889 205.707Z" fill="white"/>
<path d="M216.679 251.471C216.776 251.296 216.862 251.116 216.936 250.931C216.853 250.993 216.785 251.074 216.74 251.168C216.695 251.263 216.674 251.366 216.679 251.471Z" fill="white"/>
<path d="M219.072 238.988C221.216 222.339 208.861 225.474 211.19 230.325C212.439 232.823 216.453 231.131 215.155 228.52C216.278 230.293 216.832 232.367 216.744 234.464C216.656 236.56 215.931 238.58 214.664 240.253C216.113 241.571 217.111 243.311 217.519 245.226C217.927 247.142 217.723 249.137 216.936 250.931C219.266 249.73 218.83 254.154 220.805 254.033C222.78 249.005 219.427 244 219.072 238.988Z" fill="white"/>
<path d="M239.922 201.621C238.812 200.764 237.498 200.209 236.11 200.01L239.922 201.621Z" fill="white"/>
<path d="M249.4 226.836C245.854 218.633 249.908 206.158 239.922 201.589C246.66 208.922 244.29 225.958 248.135 235.934C249.094 232.968 250.069 229.858 249.4 226.836Z" fill="white"/>
<path d="M234.055 212.508C236.013 210.897 235.997 208.116 235.667 205.796C235.095 207.327 233.321 206.247 232.87 205.175L232.58 206.182L232.459 205.634L232.072 206.126C233.168 208.543 233.112 211.477 230.501 212.766C231.046 213.1 231.682 213.255 232.319 213.209C232.957 213.163 233.564 212.918 234.055 212.508Z" fill="white"/>
<path d="M235.618 205.393L235.667 205.796C235.699 205.66 235.682 205.517 235.618 205.393Z" fill="white"/>
<path d="M231.403 221.703C228.84 217.23 211.907 179.904 209.586 198.825C214.793 198.35 217.138 210.316 217.057 214.507C221.224 212.629 232.862 234.056 235.957 237.836C234.78 232.34 234.53 226.586 231.403 221.703Z" fill="white"/>
<path d="M264.238 235.233C267.461 227.529 268.638 215.458 260.772 210.389C258.878 210.84 261.36 214.128 261.796 214.95C267.816 223.298 263.117 229.592 261.755 238.142C261.166 239.146 260.374 240.017 259.431 240.699C258.488 241.382 257.413 241.861 256.275 242.107C256.863 238.972 259.499 235.322 258.491 232.219C255.751 223.693 261.715 210.026 251.076 205.53L251.882 206.335L250.867 205.594L252.753 209.527L252.06 210.518C254.743 209.527 255.686 213.298 255.138 215.304C252.721 222.17 260.643 240.882 250.899 241.333C251.077 240.543 251.025 239.719 250.75 238.958C250.474 238.197 249.986 237.531 249.344 237.038C247.055 243.154 249.988 250.616 250.802 256.942C251.062 253.643 251.753 250.392 252.858 247.272C253.728 250.453 254.604 253.636 255.485 256.821C254.897 254.057 258.378 251.309 259.515 254.847C261.796 260.362 262.358 266.438 261.127 272.277C263.883 273.43 265.197 269.634 264.818 267.442C264.614 256.719 264.42 245.983 264.238 235.233Z" fill="white"/>
<path d="M236.948 238.642C238.407 244.726 242.163 250.939 244.202 257.007C243.855 254.194 241.091 235.467 236.948 238.642Z" fill="white"/>
<path d="M239.672 215.659C236.376 219.463 238.423 207.746 237.996 206.158C233.507 209.502 237.19 218.246 235.006 222.38C237.416 220.321 239.438 217.849 240.978 215.079C240.583 214.732 239.97 215.2 239.672 215.659Z" fill="white"/>
<g opacity="0.5">
<path d="M216.679 251.471C216.776 251.296 216.862 251.116 216.936 250.931C216.853 250.993 216.785 251.074 216.74 251.168C216.695 251.263 216.674 251.366 216.679 251.471Z" fill="white"/>
<path d="M219.072 238.988C221.216 222.339 208.861 225.474 211.19 230.325C212.439 232.823 216.453 231.131 215.155 228.52C216.278 230.293 216.832 232.367 216.744 234.464C216.656 236.56 215.931 238.58 214.664 240.253C216.113 241.571 217.111 243.311 217.519 245.226C217.927 247.142 217.723 249.137 216.937 250.931C219.266 249.73 218.831 254.154 220.805 254.033C222.78 249.005 219.427 244 219.072 238.988Z" fill="white"/>
<path d="M239.922 201.621C238.812 200.764 237.498 200.209 236.11 200.01L239.922 201.621Z" fill="white"/>
<path d="M249.4 226.836C245.854 218.633 249.908 206.158 239.922 201.589C246.66 208.922 244.29 225.958 248.135 235.934C249.094 232.968 250.069 229.858 249.4 226.836Z" fill="white"/>
<path d="M234.055 212.508C236.013 210.897 235.997 208.116 235.667 205.796C235.095 207.327 233.321 206.247 232.87 205.175L232.58 206.182L232.459 205.634L232.072 206.126C233.168 208.543 233.112 211.477 230.501 212.766C231.046 213.1 231.682 213.255 232.319 213.209C232.957 213.163 233.564 212.918 234.055 212.508Z" fill="white"/>
<path d="M235.618 205.393L235.667 205.796C235.699 205.66 235.682 205.517 235.618 205.393Z" fill="white"/>
<path d="M231.403 221.703C228.84 217.23 211.907 179.904 209.586 198.825C214.793 198.35 217.138 210.316 217.057 214.507C221.224 212.629 232.862 234.056 235.957 237.836C234.78 232.34 234.53 226.586 231.403 221.703Z" fill="white"/>
<path d="M264.238 235.233C267.461 227.529 268.638 215.458 260.772 210.389C258.878 210.84 261.36 214.128 261.796 214.95C267.816 223.298 263.117 229.592 261.755 238.142C261.166 239.146 260.374 240.017 259.431 240.699C258.488 241.382 257.413 241.861 256.275 242.107C256.863 238.972 259.499 235.322 258.491 232.219C255.751 223.693 261.715 210.026 251.076 205.53L251.882 206.335L250.867 205.594L252.753 209.527L252.06 210.518C254.743 209.527 255.686 213.298 255.138 215.304C252.721 222.17 260.643 240.882 250.899 241.333C251.077 240.543 251.025 239.719 250.75 238.958C250.474 238.197 249.986 237.531 249.344 237.038C247.055 243.154 249.988 250.616 250.802 256.942C251.062 253.643 251.753 250.392 252.858 247.272C253.728 250.453 254.604 253.636 255.485 256.821C254.897 254.057 258.378 251.309 259.515 254.847C261.796 260.362 262.358 266.438 261.127 272.277C263.883 273.43 265.197 269.634 264.818 267.442C264.614 256.719 264.42 245.983 264.238 235.233Z" fill="white"/>
<path d="M236.948 238.642C238.407 244.726 242.163 250.939 244.202 257.007C243.855 254.194 241.091 235.467 236.948 238.642Z" fill="white"/>
<path d="M239.672 215.659C236.376 219.463 238.423 207.746 237.996 206.158C233.507 209.502 237.19 218.246 235.006 222.38C237.416 220.321 239.438 217.849 240.978 215.079C240.583 214.732 239.97 215.2 239.672 215.659Z" fill="white"/>
</g>
<path d="M210.062 236.007C209.127 236.747 208.328 237.644 207.7 238.658L210.062 236.007Z" fill="white"/>
<path d="M243.541 309.338L235.127 282.85C227.228 274.719 212.721 267.281 211.464 256.016C209.852 241.559 207.62 242.147 207.62 238.553C209.233 235.49 210.26 232.153 210.65 228.714C211.053 225.821 214.68 225.611 216.558 227.295C219.628 230.003 219.242 234.467 218.548 238.118C220.033 241.231 221.072 244.538 221.635 247.941C222.32 245.233 222.796 242.518 223.473 239.81C223.65 239.705 223.569 239.496 223.731 239.383C219.701 227.368 211.295 215.369 206.741 201.073C205.041 196.528 209.586 192.902 212.842 196.593C217.565 205.933 225.737 217.085 232.282 225.361C232.282 225.361 235.167 222.662 235.562 221.509C235.941 220.357 235.562 211.283 235.562 211.283C233.676 215.57 224.424 212.532 227.905 206.867C232.741 197.044 237.254 198.47 245.016 204.506C249.086 203.209 256.404 208.261 257.29 210.147C257.29 210.147 260.57 210.147 262.126 211.09C262.513 211.332 268.025 218.778 266.623 224.95C265.817 228.633 265.487 233.919 265.1 235.354L265.003 270.98L271.66 294.591" stroke="#263238" stroke-miterlimit="10"/>
<path d="M245.87 205.787C248.513 210.784 246.394 225.265 250.198 226.457" stroke="#263238" stroke-miterlimit="10"/>
<path d="M257.242 211.082C260.595 218.141 255.155 227.843 258.725 230.124" stroke="#263238" stroke-miterlimit="10"/>
<path d="M236.465 205.103C236.183 206.714 235.949 208.56 235.659 210.163C234.72 209.356 233.952 208.371 233.399 207.264C232.845 206.157 232.518 204.951 232.435 203.716" stroke="#263238" stroke-miterlimit="10"/>
<path d="M221.023 248.094L219.274 248.827" stroke="#263238" stroke-miterlimit="10"/>
<path d="M221.466 249.488C221.192 250.834 221.192 252.22 221.466 253.566" stroke="#263238" stroke-miterlimit="10"/>
<path d="M231.653 234.435C232.298 235.587 232.935 236.748 233.579 237.908" stroke="#263238" stroke-miterlimit="10"/>
<path d="M235.393 221.719L237.311 219.011" stroke="#263238" stroke-miterlimit="10"/>
<path d="M262.336 234.435L261.755 236.554" stroke="#263238" stroke-miterlimit="10"/>
<path d="M257.645 228.625C258.182 226.82 258.749 225.015 259.345 223.21" stroke="#263238" stroke-miterlimit="10"/>
<path d="M263.319 219.011C263.829 218.746 264.423 218.693 264.973 218.864C265.522 219.034 265.982 219.415 266.252 219.922" stroke="#263238" stroke-miterlimit="10"/>
<path d="M251.737 209.768C252.406 209.581 253.111 209.563 253.788 209.718C254.466 209.873 255.093 210.195 255.614 210.655" stroke="#263238" stroke-miterlimit="10"/>
<path d="M215.84 215.159C216.468 214.476 217.246 213.949 218.114 213.622C218.982 213.294 219.915 213.175 220.837 213.274" stroke="#263238" stroke-miterlimit="10"/>
<path d="M208.563 199.945C209.728 199.109 211.176 198.768 212.592 198.994" stroke="#263238" stroke-miterlimit="10"/>
<path d="M210.062 236.007C209.127 236.747 208.328 237.644 207.7 238.658" stroke="#263238" stroke-miterlimit="10"/>
<path d="M210.836 232.348C214.188 231.542 216.372 235.257 215.47 228.843" stroke="#263238" stroke-miterlimit="10"/>
<path d="M246.773 226.755C248.327 229.973 248.643 233.651 247.659 237.086" stroke="#263238" stroke-miterlimit="10"/>
<path d="M256.138 231.727C256.39 233.254 256.105 234.82 255.332 236.16" stroke="#263238" stroke-miterlimit="10"/>
<path opacity="0.2" d="M178.211 243.823C178.146 247.466 176.099 253.904 175.543 258.86C174.882 263.582 167.25 278.2 167.25 278.2C159.392 287.717 153.823 292.939 149.745 311.353C139.848 308.323 130.056 304.745 121.037 299.595C123.39 290.876 123.076 290.119 126.123 284.671L123.584 251.245C120.054 240.898 118.007 228.013 126.002 219.253L128.049 219.1L134.384 210.236C142.024 208.535 137.511 217.625 135.834 219.181L134.593 227.134L137.64 234.58L139.251 235.16C139.251 235.16 139.783 222.049 139.421 219.43L142.725 207.512C143.717 205.561 144.595 203.554 145.352 201.5C145.965 199.494 149.568 197.471 151.639 201.025C153.444 202.919 150.551 209.083 150.414 209.664C150.414 209.664 149.608 219.801 149.406 220.083C149.205 220.365 150.897 235.176 150.897 235.176L152.219 235.765L152.687 221.622L155.435 208.334C155.435 208.334 155.209 201.944 159.714 202.693C166.629 202.113 162.447 221.163 163.083 222.348C163.398 229.278 164.695 243.598 165.977 250.35L168.072 241.994C168.072 241.994 168.193 230.019 175.753 228.996C181.427 228.174 175.906 235.934 178.211 243.823Z" fill="black"/>
<path d="M175.914 229.02C175.567 227.408 173.303 227.658 173.303 227.658C165.686 228.109 164.663 240.044 164.663 240.044L161.931 248.199C161.205 241.381 161.012 226.973 161.205 220.051C160.641 218.802 166.299 200.155 159.336 200.203C154.903 199.091 154.645 205.481 154.645 205.481L150.905 218.52L149.366 232.582L148.093 231.905C148.093 231.905 147.488 216.981 147.746 216.731C148.004 216.481 149.535 206.424 149.535 206.424C149.696 205.884 153.089 199.921 151.413 197.898C149.616 194.24 145.876 195.948 145.103 197.898C144.199 199.889 143.176 201.824 142.04 203.692L137.768 215.369C137.93 218.012 136.414 231.051 136.414 231.051L134.875 230.35L132.401 222.694L134.287 214.853C136.092 213.419 141.242 204.7 133.481 205.828L126.534 214.176H124.438C115.798 222.323 116.87 235.273 119.602 245.87V279.361C115.911 284.953 116.379 285.598 113.002 294.978C124.93 301.956 130.878 304.93 140.912 308.419C146.642 289.7 152.098 285.396 161.117 276.033C161.117 276.033 169.829 262.035 170.853 257.385C171.658 253.566 173.738 246.627 174.447 244.25C174.947 241.897 174.342 239.834 174.447 236.732C174.431 233.694 176.252 230.607 175.914 229.02Z" fill="#191B21"/>
<path d="M123.608 225.635C132.28 218.552 128.694 235.16 134.843 231.768C134.956 233.533 135.061 235.297 135.173 237.062C140.235 231.381 134.658 218.616 141.702 217.166C149.761 218.778 142.991 230.769 147.287 236.16L148.568 233.565C148.955 235.305 149.374 237.038 149.721 238.771C151.034 234.443 148.52 223.572 154.008 222.565C155.459 222.71 156.297 224.257 156.781 225.627C160.416 235.902 158.917 247.175 157.377 257.958C160.939 258.256 158.457 250.705 162.447 251.922C163.72 252.728 162.833 255.194 164.163 255.879C164.163 251.946 170.151 240.052 173.375 247.546C173.528 248.626 175.092 244.162 174.818 245.217C175.43 239.004 174.205 238.351 174.818 232.13C174.931 231.01 176.744 229.068 175.97 228.246C175.197 227.424 173.045 226.312 172.07 226.764C162.729 229.922 164.058 241.567 162.398 249.682C161.342 239.56 160.303 229.27 162.156 219.269C163.438 212.734 167.29 199.389 157.788 198.277C150.478 202.459 150.535 215.151 148.48 222.742C149.068 218.6 154.121 200.525 153.476 196.641C147.722 183.313 137.519 205.626 137.1 211.952C140.517 205.57 134.263 198.495 129.919 206.513C128.951 208.535 128.484 210.88 126.945 212.516C117.684 207.81 115.766 228.536 116.258 234.411C116.841 233.18 117.788 232.157 118.972 231.483C120.155 230.808 121.518 230.514 122.875 230.64C122.713 229.27 122.56 227.9 122.399 226.522" fill="#22252E"/>
<path d="M128.951 238.762C128.879 239.778 128.814 240.793 128.742 241.809C128.834 241.607 128.969 241.429 129.139 241.288C129.309 241.146 129.508 241.044 129.723 240.99C129.937 240.936 130.161 240.931 130.377 240.975C130.594 241.019 130.798 241.111 130.974 241.244C130.955 240.58 131.132 239.924 131.482 239.359C132.288 237.401 130.201 236.941 129.387 238.746C129.373 238.492 129.343 238.239 129.298 237.989L128.951 238.762Z" fill="#22252E"/>
<path d="M140.477 236.917C139.654 237.88 139.099 239.041 138.865 240.286C139.816 239.069 141.226 239.053 141.903 240.455C144.514 240.455 142 233.758 140.388 237.231L140.477 236.917Z" fill="#22252E"/>
<path d="M151.671 239.713C150.794 240.902 150.213 242.284 149.979 243.743C151.365 243.477 153.589 240.584 154.411 243.074C154.21 241.712 154.822 240.334 154.331 238.996C153.968 237.497 151.333 237.505 151.824 239.302L151.671 239.713Z" fill="#22252E"/>
<path d="M120.892 243.759C120.272 244.925 119.948 246.225 119.949 247.546C120.11 246.12 121.932 246.128 122.85 246.829C123.85 245.024 121.303 241.954 120.658 244.774L120.473 244.315L120.892 243.759Z" fill="#22252E"/>
<path d="M123.608 225.635C132.28 218.552 128.694 235.16 134.843 231.768C134.956 233.533 135.061 235.297 135.173 237.062C140.235 231.381 134.658 218.616 141.702 217.166C149.761 218.778 142.991 230.769 147.287 236.16L148.568 233.565C148.955 235.305 149.374 237.038 149.721 238.771C151.034 234.443 148.52 223.572 154.008 222.565C155.459 222.71 156.297 224.257 156.781 225.627C160.416 235.902 158.917 247.175 157.377 257.958C160.939 258.256 158.457 250.705 162.447 251.922C163.72 252.728 162.833 255.194 164.163 255.879C164.163 251.946 170.151 240.052 173.375 247.546C173.528 248.626 175.092 244.162 174.818 245.217C175.43 239.004 174.205 238.351 174.818 232.13C174.931 231.01 176.744 229.068 175.97 228.246C175.197 227.424 173.045 226.312 172.07 226.764C162.729 229.922 164.058 241.567 162.398 249.682C161.342 239.56 160.303 229.27 162.156 219.269C163.438 212.734 167.29 199.389 157.788 198.277C150.478 202.459 150.535 215.151 148.48 222.742C149.068 218.6 154.121 200.525 153.476 196.641C147.722 183.313 137.519 205.626 137.1 211.952C140.517 205.57 134.263 198.495 129.919 206.513C128.951 208.535 128.484 210.88 126.945 212.516C117.684 207.81 115.766 228.536 116.258 234.411C116.841 233.18 117.788 232.157 118.972 231.483C120.155 230.808 121.518 230.514 122.875 230.64C122.713 229.27 122.56 227.9 122.399 226.522" fill="white"/>
<g opacity="0.5">
<path d="M128.951 238.762C128.879 239.778 128.814 240.793 128.742 241.809C128.834 241.607 128.969 241.429 129.139 241.288C129.309 241.146 129.508 241.045 129.723 240.99C129.937 240.936 130.161 240.931 130.377 240.975C130.594 241.019 130.798 241.111 130.974 241.244C130.955 240.58 131.132 239.924 131.482 239.359C132.288 237.401 130.201 236.941 129.387 238.746C129.373 238.492 129.343 238.239 129.298 237.989L128.951 238.762Z" fill="white"/>
<path d="M140.477 236.917C139.654 237.88 139.099 239.041 138.865 240.286C139.816 239.069 141.226 239.053 141.903 240.455C144.514 240.455 142 233.758 140.388 237.231L140.477 236.917Z" fill="white"/>
<path d="M151.671 239.713C150.794 240.902 150.213 242.284 149.979 243.743C151.365 243.477 153.589 240.584 154.411 243.074C154.21 241.712 154.822 240.334 154.331 238.996C153.968 237.497 151.333 237.505 151.824 239.302L151.671 239.713Z" fill="white"/>
<path d="M120.892 243.759C120.272 244.925 119.948 246.225 119.949 247.546C120.11 246.12 121.932 246.128 122.85 246.829C123.85 245.024 121.303 241.954 120.658 244.774L120.473 244.315L120.892 243.759Z" fill="white"/>
</g>
<path d="M112.978 294.994C116.363 285.622 115.887 284.953 119.578 279.377V245.886C116.838 235.297 115.774 222.331 124.414 214.192H126.469L133.449 205.844C141.194 204.675 136.011 213.475 134.255 214.869L132.369 222.71L134.843 230.366L136.382 231.067C136.382 231.067 137.897 218.028 137.736 215.385L142.008 203.708C143.144 201.84 144.167 199.905 145.07 197.914C145.876 195.964 149.584 194.256 151.381 197.914C153.041 199.929 149.688 205.916 149.503 206.44C149.503 206.44 147.972 216.489 147.714 216.747C147.456 217.005 148.06 231.921 148.06 231.921L149.334 232.598L150.873 218.536L154.58 205.489C154.58 205.489 154.838 199.099 159.271 200.211C166.218 200.139 160.601 218.826 161.141 220.059C160.964 226.997 161.141 241.39 161.89 248.263L164.623 240.092C164.623 240.092 165.646 228.158 173.262 227.706C173.262 227.706 175.527 227.473 175.874 229.068C176.22 230.664 174.391 233.726 174.391 236.796C174.391 238.948 174.512 241.39 174.568 242.647C174.238 246.329 171.691 252.542 170.78 257.45C169.756 262.1 161.044 276.097 161.044 276.097C152.066 285.413 146.537 289.796 140.839 308.484" stroke="#263238" stroke-miterlimit="10"/>
<path d="M136.261 232.324C136.48 233.123 136.49 233.966 136.29 234.77C136.089 235.574 135.686 236.314 135.117 236.917" fill="white"/>
<path d="M136.261 232.324C136.48 233.123 136.49 233.966 136.29 234.77C136.089 235.574 135.686 236.314 135.117 236.917" stroke="#263238" stroke-miterlimit="10"/>
<path d="M123.237 243.589C128.162 235.998 120.384 229.826 125.067 217.577L123.237 243.589Z" fill="white"/>
<path d="M123.237 243.589C128.162 235.998 120.384 229.826 125.067 217.577" stroke="#263238" stroke-miterlimit="10"/>
<path d="M155.37 206.215C156.691 205.868 158.079 205.868 159.4 206.215C159.393 205.838 159.407 205.461 159.44 205.086" stroke="#263238" stroke-miterlimit="10"/>
<path d="M144.788 201.186C145.178 201.448 145.631 201.599 146.1 201.622C146.569 201.646 147.035 201.542 147.449 201.321C147.864 201.1 148.21 200.77 148.451 200.367C148.692 199.965 148.819 199.504 148.818 199.035" stroke="#263238" stroke-miterlimit="10"/>
<path d="M173.915 229.157C172.801 229.443 171.822 230.11 171.147 231.041C170.471 231.972 170.142 233.11 170.216 234.258L172.19 234.854" stroke="#263238" stroke-miterlimit="10"/>
<path d="M147.98 230.14C148.068 231.494 147.899 234.725 147.98 236.079V230.14Z" fill="white"/>
<path d="M147.98 230.14C148.068 231.494 147.899 234.725 147.98 236.079" stroke="#263238" stroke-miterlimit="10"/>
<path d="M149.463 232.018C149.302 234.226 149.138 236.439 148.971 238.658V237.812" fill="white"/>
<path d="M149.463 232.018C149.302 234.226 149.138 236.439 148.971 238.658V237.812" stroke="#263238" stroke-miterlimit="10"/>
<path d="M161.761 250.689C162.35 253.138 162.083 255.714 161.004 257.99L161.761 250.689Z" fill="white"/>
<path d="M161.761 250.689C162.35 253.138 162.083 255.714 161.004 257.99" stroke="#263238" stroke-miterlimit="10"/>
<path d="M141.331 239.077C139.574 241.003 139.832 245.628 141.073 248.167" stroke="#263238" stroke-miterlimit="10"/>
<path d="M154.314 242.26C154.339 244.435 153.575 246.544 152.163 248.199" stroke="#263238" stroke-miterlimit="10"/>
<path d="M128.532 239.963C128.242 241.927 128.669 243.929 129.733 245.604" stroke="#263238" stroke-miterlimit="10"/>
<path d="M121.053 246.015C120.98 247.547 121.416 249.06 122.294 250.318" stroke="#263238" stroke-miterlimit="10"/>
<path d="M131.305 208.866C131.767 208.653 132.282 208.582 132.784 208.662C133.286 208.742 133.753 208.97 134.126 209.317L135.117 208.004" stroke="#263238" stroke-miterlimit="10"/>
<path d="M139.574 214.781C140.255 214.38 141.056 214.232 141.836 214.363C142.616 214.494 143.324 214.896 143.837 215.498" stroke="#263238" stroke-miterlimit="10"/>
<path d="M152.485 218.81C153.21 218.488 153.996 218.33 154.789 218.347C155.581 218.364 156.36 218.555 157.071 218.907" stroke="#263238" stroke-miterlimit="10"/>
<path d="M123.753 225.571C124.183 224.854 124.809 224.276 125.558 223.905C126.306 223.533 127.146 223.384 127.976 223.476" stroke="#263238" stroke-miterlimit="10"/>
<path d="M118.345 233.275C118.373 232.754 118.577 232.257 118.924 231.868C119.271 231.478 119.741 231.218 120.255 231.131" stroke="#263238" stroke-miterlimit="10"/>
<path style="mix-blend-mode:soft-light" d="M372.976 157.848C368.027 232.509 259.515 328.59 183.256 318.089C128.742 314.794 -2.168 238.19 -7.60332e-06 178.349L93.4898 118.225C145.111 120.385 244.024 118.225 296.161 118.225C314.674 128.306 353.923 148.42 372.976 157.848Z" fill="url(#paint1_radial_10_3010)"/>
<path d="M123.31 150.571H106.288C105.219 150.571 104.194 150.996 103.439 151.751C102.683 152.507 102.258 153.532 102.258 154.6C102.589 162.401 99.8405 168.01 110.729 166.898L114.098 174.529L118.845 166.898C121.98 167.01 127.388 167.413 127.315 162.868C126.92 159.476 129.129 150.41 123.31 150.571Z" fill="white" stroke="#263238" stroke-linecap="round" stroke-linejoin="round"/>
<path d="M112.421 155.302C112.418 155.196 112.435 155.09 112.472 154.991C112.509 154.892 112.565 154.801 112.638 154.724C112.71 154.646 112.796 154.584 112.893 154.54C112.989 154.496 113.093 154.471 113.199 154.468C113.305 154.464 113.41 154.481 113.51 154.518C113.609 154.555 113.7 154.611 113.777 154.684C113.855 154.756 113.917 154.843 113.961 154.939C114.005 155.035 114.03 155.139 114.033 155.245C114.041 155.459 113.963 155.667 113.817 155.823C113.671 155.98 113.469 156.072 113.256 156.079C113.042 156.087 112.834 156.009 112.677 155.863C112.521 155.717 112.429 155.515 112.421 155.302ZM112.599 156.986H113.896V162.514H112.599V156.986Z" fill="#263238"/>
<path d="M117.015 156.696V157.026H118.53V158.066H117.056V162.514H115.758V158.066H114.847V157.026H115.758C115.699 156.636 115.755 156.236 115.92 155.878C116.086 155.519 116.352 155.216 116.687 155.007C117.022 154.798 117.411 154.692 117.806 154.701C118.201 154.71 118.584 154.835 118.909 155.06L118.547 156.035C117.942 155.608 116.959 155.761 117.015 156.696Z" fill="#263238"/>
<path d="M175.043 151.724H158.022C156.953 151.724 155.928 152.148 155.172 152.904C154.417 153.659 153.992 154.684 153.992 155.753C154.323 163.561 151.574 169.17 162.471 168.058L165.832 175.689L170.579 168.058C173.714 168.171 179.138 168.582 179.057 164.029C178.654 160.628 180.879 151.587 175.043 151.724Z" fill="white" stroke="#263238" stroke-linecap="round" stroke-linejoin="round"/>
<path d="M161.616 161.321H157.272C157.554 162.828 159.626 163.07 160.569 162.046L161.262 162.852C160.841 163.262 160.312 163.544 159.738 163.667C159.163 163.789 158.566 163.747 158.014 163.545C157.463 163.343 156.979 162.989 156.62 162.524C156.26 162.06 156.04 161.503 155.983 160.918C155.878 156.962 162.301 157.373 161.616 161.321ZM157.264 160.467H160.44C160.295 158.678 157.425 158.686 157.264 160.467Z" fill="#263238"/>
<path d="M162.858 155.995H164.147V163.674H162.858V155.995Z" fill="#263238"/>
<path d="M165.275 163.126L165.767 162.143C166.46 162.651 168.733 163.126 168.854 162.079C168.975 161.031 165.437 162.014 165.437 159.814C165.364 157.945 168.507 157.711 169.926 158.557L169.426 159.54C168.781 159.073 166.702 158.839 166.654 159.75C166.654 160.87 170.071 159.871 170.071 162.038C170.151 163.964 166.678 164.142 165.275 163.126Z" fill="#263238"/>
<path d="M176.373 161.321H172.029C172.311 162.828 174.383 163.07 175.325 162.046L176.019 162.852C175.597 163.262 175.069 163.544 174.495 163.667C173.92 163.789 173.323 163.747 172.771 163.545C172.219 163.343 171.736 162.989 171.377 162.524C171.017 162.06 170.796 161.503 170.74 160.918C170.635 156.962 177.058 157.373 176.373 161.321ZM172.021 160.467H175.156C175.011 158.686 172.182 158.702 172.021 160.467Z" fill="#263238"/>
<path d="M225.222 151.24H208.216C207.154 151.24 206.135 151.659 205.381 152.406C204.626 153.153 204.197 154.167 204.186 155.229C204.598 158.646 202.365 167.679 208.216 167.534H212.665L216.026 175.166L220.773 167.534C223.908 167.655 229.332 168.05 229.251 163.505C228.889 160.096 231.057 151.095 225.222 151.24Z" fill="white" stroke="#263238" stroke-linecap="round" stroke-linejoin="round"/>
<path d="M212.117 157.365V157.695H213.632V158.751H212.149V163.199H210.86V158.751H209.949V157.711H210.86C210.8 157.322 210.855 156.924 211.018 156.566C211.182 156.208 211.447 155.906 211.78 155.697C212.114 155.487 212.501 155.381 212.895 155.389C213.288 155.398 213.671 155.521 213.995 155.745L213.632 156.72C213.036 156.277 212.061 156.438 212.117 157.365Z" fill="#263238"/>
<path d="M213.971 160.419C213.769 156.599 219.782 156.389 219.87 160.193C220.104 164.005 213.898 164.319 213.971 160.419ZM218.556 160.419C218.436 158.332 215.155 158.581 215.333 160.66C215.51 162.739 218.742 162.506 218.556 160.419Z" fill="#263238"/>
<path d="M224.295 157.59V158.823C221.764 158.42 222.465 161.732 222.385 163.215H221.087V157.687H222.32V158.493C222.543 158.184 222.842 157.938 223.188 157.78C223.534 157.622 223.916 157.556 224.295 157.59Z" fill="#263238"/>
<path d="M274.674 150.571H257.669C256.6 150.571 255.575 150.996 254.82 151.751C254.064 152.507 253.639 153.532 253.639 154.6C254.05 158.017 251.818 167.043 257.669 166.898H262.118L265.479 174.529L270.226 166.898C273.361 167.01 278.785 167.421 278.704 162.868C278.309 159.476 280.518 150.41 274.674 150.571Z" fill="white" stroke="#263238" stroke-linecap="round" stroke-linejoin="round"/>
<path d="M263.964 156.712H268.735V157.767H263.964V156.712ZM263.964 159.218H268.735V160.257H263.964V159.218Z" fill="#263238"/>
<path d="M149.205 141.022H132.232C131.163 141.022 130.138 141.447 129.382 142.202C128.626 142.958 128.202 143.983 128.202 145.051C128.532 152.852 125.784 158.46 136.68 157.348L140.041 164.98L144.788 157.348C147.923 157.453 153.347 157.872 153.267 153.319C152.872 149.886 155.088 140.813 149.205 141.022Z" fill="white" stroke="#263238" stroke-linecap="round" stroke-linejoin="round"/>
<path d="M136.705 144.431H139.179V145.47H137.994V153.11H139.179V154.149H136.705V144.431Z" fill="#263238"/>
<path d="M142.386 154.125V153.11H143.555V145.494H142.386V144.455H144.845V154.125H142.386Z" fill="#263238"/>
<path d="M199.754 140.152H182.748C181.68 140.152 180.655 140.576 179.899 141.332C179.143 142.088 178.719 143.112 178.719 144.181C179.049 151.982 176.301 157.59 187.197 156.478L190.566 164.109L195.313 156.478C198.448 156.591 203.856 156.994 203.784 152.449C203.381 149.08 205.605 139.999 199.754 140.152Z" fill="white" stroke="#263238" stroke-linecap="round" stroke-linejoin="round"/>
<path d="M187.785 148.404C189.341 148.807 187.27 152.546 189.397 152.231V153.271C185.247 153.795 188.527 148.831 186.311 148.952V147.896C188.519 148.033 185.247 143.061 189.397 143.577V144.616C187.278 144.31 189.349 147.976 187.785 148.404Z" fill="#263238"/>
<path d="M195.692 147.872V148.903C193.467 148.758 196.764 153.738 192.589 153.223V152.207C194.741 152.513 192.686 148.798 194.201 148.379C192.678 147.952 194.733 144.245 192.589 144.544V143.504C196.748 143.004 193.427 147.767 195.692 147.872Z" fill="#263238"/>
<path d="M249.771 138.476H232.765C231.697 138.476 230.672 138.9 229.916 139.656C229.16 140.411 228.736 141.436 228.736 142.505C229.066 150.297 226.318 155.914 237.206 154.802L240.575 162.433L245.322 154.802C248.457 154.915 253.881 155.326 253.8 150.773C253.406 147.372 255.614 138.314 249.771 138.476Z" fill="white" stroke="#263238" stroke-linecap="round" stroke-linejoin="round"/>
<path d="M240.591 144.6C240.579 144.481 240.593 144.362 240.63 144.249C240.668 144.135 240.729 144.031 240.809 143.943C240.889 143.855 240.986 143.784 241.095 143.736C241.204 143.688 241.322 143.663 241.441 143.663C241.561 143.663 241.678 143.688 241.787 143.736C241.896 143.784 241.994 143.855 242.074 143.943C242.154 144.031 242.215 144.135 242.252 144.249C242.29 144.362 242.303 144.481 242.292 144.6C242.303 144.719 242.29 144.838 242.252 144.951C242.215 145.065 242.154 145.169 242.074 145.257C241.994 145.345 241.896 145.416 241.787 145.464C241.678 145.512 241.561 145.537 241.441 145.537C241.322 145.537 241.204 145.512 241.095 145.464C240.986 145.416 240.889 145.345 240.809 145.257C240.729 145.169 240.668 145.065 240.63 144.951C240.593 144.838 240.579 144.719 240.591 144.6ZM242.292 148.541C242.092 149.347 241.822 150.134 241.486 150.894H240.68L241.099 149.282C239.487 148.363 242.106 146.671 242.292 148.516V148.541Z" fill="#263238"/>
<path d="M183.296 283.076H200.294C201.362 283.076 202.387 282.651 203.143 281.896C203.899 281.14 204.323 280.115 204.323 279.046C204.001 271.254 206.741 265.678 195.853 266.782L194.555 259.15L187.737 266.782C184.61 266.677 179.194 266.266 179.267 270.811C179.67 274.211 177.461 283.237 183.296 283.076Z" fill="white" stroke="#263238" stroke-linecap="round" stroke-linejoin="round"/>
<path d="M189.268 273.244L185.698 274.614L189.268 275.944V277.032L184.497 275.178V274.058L189.268 272.205V273.244Z" fill="#263238"/>
<path d="M193.04 269.481H194.233L190.816 279.24H189.663L193.04 269.481Z" fill="#263238"/>
<path d="M199.214 273.986V275.106L194.443 276.959V275.879L198.013 274.55L194.443 273.212V272.165L199.214 273.986Z" fill="#263238"/>
<path d="M75.2028 222.839H92.2002C93.262 222.839 94.2809 222.42 95.0355 221.673C95.7901 220.926 96.2193 219.912 96.2299 218.85C95.8995 211.058 98.6478 205.433 87.7594 206.545L88.7266 198.914L79.6436 206.545C76.5165 206.44 71.1005 206.029 71.1731 210.574C71.576 213.975 69.3677 223 75.2028 222.839Z" fill="white" stroke="#263238" stroke-linecap="round" stroke-linejoin="round"/>
<path d="M80.24 217.577C80.24 217.363 80.3249 217.158 80.476 217.007C80.6272 216.856 80.8322 216.771 81.0459 216.771C81.2597 216.771 81.4647 216.856 81.6158 217.007C81.767 217.158 81.8519 217.363 81.8519 217.577C81.8519 217.791 81.767 217.996 81.6158 218.147C81.4647 218.298 81.2597 218.383 81.0459 218.383C80.8322 218.383 80.6272 218.298 80.476 218.147C80.3249 217.996 80.24 217.791 80.24 217.577ZM80.3125 211.058H81.8438L81.5859 215.893H80.5946L80.3125 211.058Z" fill="#263238"/>
<path d="M83.1816 212.935H87.9528V213.975H83.1816V212.935ZM83.1816 215.441H87.9528V216.481H83.1816V215.441Z" fill="#263238"/>
</g>
<defs>
<radialGradient id="paint0_radial_10_3010" cx="0" cy="0" r="1" gradientUnits="userSpaceOnUse" gradientTransform="translate(43.4485 153.247) scale(32.9551 32.9508)">
<stop stop-color="white"/>
<stop offset="0.09" stop-color="white" stop-opacity="0.95"/>
<stop offset="0.25" stop-color="white" stop-opacity="0.82"/>
<stop offset="0.48" stop-color="white" stop-opacity="0.6"/>
<stop offset="0.74" stop-color="white" stop-opacity="0.31"/>
<stop offset="1" stop-color="white" stop-opacity="0"/>
</radialGradient>
<radialGradient id="paint1_radial_10_3010" cx="0" cy="0" r="1" gradientUnits="userSpaceOnUse" gradientTransform="translate(198.827 121.464) scale(220.596 220.567)">
<stop stop-color="white"/>
<stop offset="0.2" stop-color="white" stop-opacity="0.72"/>
<stop offset="0.43" stop-color="white" stop-opacity="0.42"/>
<stop offset="0.63" stop-color="white" stop-opacity="0.19"/>
<stop offset="0.77" stop-color="white" stop-opacity="0.05"/>
<stop offset="0.85" stop-color="white" stop-opacity="0"/>
</radialGradient>
<clipPath id="clip0_10_3010">
<rect width="373" height="319" fill="white"/>
</clipPath>
</defs>
</svg>
