<svg xmlns="http://www.w3.org/2000/svg" viewBox="0 0 363.73 311.04"><defs><style>.cls-1,.cls-9{fill:#dcdcdc;}.cls-2{opacity:0.7;}.cls-11,.cls-15,.cls-19,.cls-3,.cls-6{fill:#fff;}.cls-10,.cls-4,.cls-7{fill:#263238;}.cls-11,.cls-19,.cls-4,.cls-5{isolation:isolate;}.cls-4,.cls-5,.cls-8{opacity:0.2;}.cls-13,.cls-14,.cls-15,.cls-16,.cls-17,.cls-18,.cls-6,.cls-9{stroke:#263238;}.cls-13,.cls-6,.cls-7{stroke-miterlimit:10;}.cls-7{stroke:#fff;}.cls-14,.cls-15,.cls-16,.cls-17,.cls-18,.cls-9{stroke-linecap:round;stroke-linejoin:round;}.cls-11,.cls-12{opacity:0.5;}.cls-13,.cls-14{fill:none;}.cls-16{fill:#757575;}.cls-17{fill:#999;}.cls-18{fill:#bfbfbf;}.cls-19{opacity:0.1;}</style></defs><g id="Layer_2" data-name="Layer 2"><g id="Layer_1-2" data-name="Layer 1"><path class="cls-1" d="M363.73,152.39a93.73,93.73,0,0,1-2.62,22.38q-.89,3.61-2.1,7.16c-.24.68-.48,1.35-.73,2s-.41,1.1-.63,1.65l-.18.44c-.23.57-.45,1.14-.7,1.69l-.11.28c-.24.55-.48,1.1-.73,1.64l-.33.72c-.22.48-.45,1-.68,1.44l-.75,1.52-.27.53-.67,1.3-.54,1q-1.26,2.31-2.62,4.56c-.37.61-.75,1.22-1.13,1.83-.09.15-.18.3-.28.45-.44.69-.89,1.38-1.34,2.07s-.74,1.12-1.13,1.68l-1,1.45-.22.31L343.91,210c-.44.62-.88,1.22-1.33,1.84-.1.12-.18.25-.28.37-.51.69-1,1.39-1.57,2.07-.31.41-.63.79-1,1.23q-.86,1.11-1.74,2.22c-.59.74-1.12,1.41-1.69,2.11l-.19.23c-.57.69-1.14,1.39-1.72,2.08-.16.21-.34.42-.52.63-.52.63-1.06,1.27-1.57,1.9q-2.31,2.73-4.66,5.42-4.77,5.5-9.75,10.92c-2.76,3-5.56,6-8.41,8.87C295.83,264,281,277.09,264.89,287.55c-2,1.29-4,2.56-6.07,3.76l-2.24,1.31-.38.23-2.32,1.29c-.75.43-1.57.87-2.36,1.29l-1.08.57c-1.58.81-3.15,1.6-4.72,2.35-.86.41-1.71.79-2.58,1.19s-1.57.72-2.4,1.06l-1,.42-2.21.91c-1.42.58-2.86,1.13-4.3,1.64l-1.67.6-.94.32-1.58.51-1.35.44h-.05c-.88.27-1.77.54-2.66.78-1.41.41-2.81.79-4.23,1.15-.93.24-1.87.46-2.81.67l-2.67.58-.22,0c-.92.19-1.86.37-2.79.53l-1.44.25-1.44.23c-.43.07-.87.13-1.31.18l-1.57.22a120.91,120.91,0,0,1-16.8,1h-1a143.12,143.12,0,0,1-15.21-1.14l-1.11-.15-1.91-.27-1.48-.24c-2.1-.33-4.19-.7-6.29-1.13l-1.38-.28c-1.4-.29-2.8-.61-4.19-.94-.94-.22-1.87-.44-2.8-.68l-1.39-.36-1.39-.37c-1.84-.5-3.68-1-5.5-1.57-2.13-.65-4.24-1.33-6.35-2.06l-2.3-.78c-2.35-.84-4.71-1.73-7.07-2.65l-1.28-.52-1-.45-.69-.31c-1.53-.69-3.15-1.5-5-2.41l-.91-.48c-1.09-.57-2.23-1.17-3.4-1.82-2.47-1.35-5.1-2.84-7.86-4.47-31.44-18.5-79.6-53.23-90.9-66.4-.57-.66-1.13-1.34-1.69-2s-.86-1.08-1.28-1.63-.79-1-1.13-1.5-.65-.89-1-1.35-.6-.84-.89-1.26l-.06-.1c-.35-.52-.71-1.05-1-1.57s-.66-1-1-1.57l-.45-.75c-.35-.58-.7-1.16-1-1.74l-1.08-1.94c-.61-1.14-1.2-2.29-1.75-3.45l-.42-.91a68.68,68.68,0,0,1-2.94-7.3c-.31-.86-.59-1.74-.85-2.61q-.51-1.68-.93-3.39c-.06-.22-.11-.44-.16-.67-.14-.59-.27-1.19-.39-1.79-.18-.83-.33-1.66-.47-2.5a4.44,4.44,0,0,0-.1-.62c-.07-.43-.13-.86-.18-1.3S.36,180.53.31,180a4.52,4.52,0,0,0-.06-.53c0-.45-.08-.9-.12-1.34a.2.2,0,0,0,0-.11c0-.53-.07-1.06-.08-1.57a.38.38,0,0,1,0-.15c0-.55,0-1.11,0-1.67v-1.57c0-.79,0-1.65.09-2.46,0-.54.07-1.07.11-1.58.1-1.05.22-2.1.38-3.14.08-.53.17-1.07.27-1.57.19-1,.42-2.11.68-3.18a55.31,55.31,0,0,1,2.71-8.06,58.14,58.14,0,0,1,2.83-5.77c.07-.16.17-.32.26-.48a87.81,87.81,0,0,1,16.51-20.21c.69-.66,1.39-1.3,2.11-1.94l2.26-2,.14-.12q1.83-1.57,3.7-3.15c1.93-1.61,3.89-3.19,5.86-4.76l.2-.16,5.09-4c2.67-2.07,5.35-4.13,8-6.18l2.07-1.63c.79-.59,1.51-1.19,2.26-1.79A167.72,167.72,0,0,0,74.26,83.09q1.63-1.8,3.26-3.61L79,77.74c7.18-8.17,13.85-16.44,21.28-24.25Q103,50.7,105.76,48c1.57-1.5,3.14-3,4.82-4.42a70.43,70.43,0,0,1,5.78-5c2.79-2.17,5.73-4.25,8.87-6.24.79-.5,1.58-1,2.31-1.45,78.37-48.73,136-32.8,174.54,0q4.37,3.77,8.42,7.69c1.64,1.57,3.22,3.22,4.72,4.87.17.17.33.35.49.54q1.62,1.73,3.15,3.46l.9,1c.45.52.9,1,1.34,1.57s1.07,1.29,1.61,1.93l1,1.23c2.14,2.64,4.19,5.32,6.13,8q.6.81,1.17,1.62c2.69,3.77,5.19,7.59,7.5,11.38l1,1.61c.33.53.65,1.07,1,1.63l.94,1.61.92,1.61.89,1.58c.31.53.6,1.07.88,1.57l.85,1.57c.29.53.56,1.06.84,1.57l.78,1.57.79,1.58c1,2.09,2,4.14,2.93,6.14.46,1,.91,2,1.35,3,1.95,4.49,3.63,8.79,5,12.79a.06.06,0,0,1,0,.06c.14.38.26.78.39,1.14s.26.78.38,1.16.2.59.29.89.28.88.41,1.33.29,1,.43,1.44c.26.88.51,1.76.78,2.64s.41,1.5.59,2.25a2.17,2.17,0,0,0,.11.42c0,.14.06.23.09.35.11.44.22.88.32,1.33.29,1.17.54,2.36.79,3.53.13.64.27,1.28.38,1.93l.07.36c.12.6.23,1.21.33,1.81.15.79.28,1.63.4,2.44.1.61.19,1.23.27,1.85a.68.68,0,0,0,0,.28c.06.41.11.79.16,1.24s.09.69.12,1c.15,1.25.27,2.49.37,3.74l.08.85.09,1.42c0,.53.06,1.06.09,1.58s0,.78,0,1.21c0,.6,0,1.21.05,1.8S363.73,151.69,363.73,152.39Z"/><g class="cls-2"><path class="cls-3" d="M363.73,152.39a93.73,93.73,0,0,1-2.62,22.38q-.89,3.61-2.1,7.16c-.24.68-.48,1.35-.73,2s-.41,1.1-.63,1.65l-.18.44c-.23.57-.45,1.14-.7,1.69l-.11.28c-.24.55-.48,1.1-.73,1.64l-.33.72c-.22.48-.45,1-.68,1.44l-.75,1.52-.27.53-.67,1.3-.54,1q-1.26,2.31-2.62,4.56c-.37.61-.75,1.22-1.13,1.83-.09.15-.18.3-.28.45-.44.69-.89,1.38-1.34,2.07s-.74,1.12-1.13,1.68l-1,1.45-.22.31L343.91,210c-.44.62-.88,1.22-1.33,1.84-.1.12-.18.25-.28.37-.51.69-1,1.39-1.57,2.07-.31.41-.63.79-1,1.23q-.86,1.11-1.74,2.22c-.59.74-1.12,1.41-1.69,2.11l-.19.23c-.57.69-1.14,1.39-1.72,2.08-.16.21-.34.42-.52.63-.52.63-1.06,1.27-1.57,1.9q-2.31,2.73-4.66,5.42-4.77,5.5-9.75,10.92c-2.76,3-5.56,6-8.41,8.87C295.83,264,281,277.09,264.89,287.55c-2,1.29-4,2.56-6.07,3.76l-2.24,1.31-.38.23-2.32,1.29c-.75.43-1.57.87-2.36,1.29l-1.08.57c-1.58.81-3.15,1.6-4.72,2.35-.86.41-1.71.79-2.58,1.19s-1.57.72-2.4,1.06l-1,.42-2.21.91c-1.42.58-2.86,1.13-4.3,1.64l-1.67.6-.94.32-1.58.51-1.35.44h-.05c-.88.27-1.77.54-2.66.78-1.41.41-2.81.79-4.23,1.15-.93.24-1.87.46-2.81.67l-2.67.58-.22,0c-.92.19-1.86.37-2.79.53l-1.44.25-1.44.23c-.43.07-.87.13-1.31.18l-1.57.22a120.91,120.91,0,0,1-16.8,1h-1a143.12,143.12,0,0,1-15.21-1.14l-1.11-.15-1.91-.27-1.48-.24c-2.1-.33-4.19-.7-6.29-1.13l-1.38-.28c-1.4-.29-2.8-.61-4.19-.94-.94-.22-1.87-.44-2.8-.68l-1.39-.36-1.39-.37c-1.84-.5-3.68-1-5.5-1.57-2.13-.65-4.24-1.33-6.35-2.06l-2.3-.78c-2.35-.84-4.71-1.73-7.07-2.65l-1.28-.52-1-.45-.69-.31c-1.53-.69-3.15-1.5-5-2.41l-.91-.48c-1.09-.57-2.23-1.17-3.4-1.82-2.47-1.35-5.1-2.84-7.86-4.47-31.44-18.5-79.6-53.23-90.9-66.4-.57-.66-1.13-1.34-1.69-2s-.86-1.08-1.28-1.63-.79-1-1.13-1.5-.65-.89-1-1.35-.6-.84-.89-1.26l-.06-.1c-.35-.52-.71-1.05-1-1.57s-.66-1-1-1.57l-.45-.75c-.35-.58-.7-1.16-1-1.74l-1.08-1.94c-.61-1.14-1.2-2.29-1.75-3.45l-.42-.91a68.68,68.68,0,0,1-2.94-7.3c-.31-.86-.59-1.74-.85-2.61q-.51-1.68-.93-3.39c-.06-.22-.11-.44-.16-.67-.14-.59-.27-1.19-.39-1.79-.18-.83-.34-1.66-.47-2.5a4.44,4.44,0,0,0-.1-.62c-.07-.43-.13-.86-.18-1.3S.36,180.53.31,180a4.52,4.52,0,0,0-.06-.53c0-.45-.08-.9-.12-1.34a.2.2,0,0,0,0-.11c0-.53-.07-1.06-.08-1.57a.38.38,0,0,1,0-.15c0-.55,0-1.11,0-1.67,0-1.36,0-2.71.09-4.07,0-.53.07-1.06.11-1.57.1-1.05.22-2.1.38-3.14.08-.54.17-1.07.27-1.57.19-1,.42-2.11.68-3.19a55.59,55.59,0,0,1,2.71-8,58.14,58.14,0,0,1,2.83-5.77c.07-.16.17-.32.26-.48a87.81,87.81,0,0,1,16.51-20.21l1.12-1,1-.89c.78-.68,1.5-1.35,2.26-2l.14-.12q1.83-1.57,3.7-3.15c1.93-1.61,3.89-3.19,5.86-4.76l.2-.16c1.69-1.34,3.39-2.66,5.09-4l2.56-2q2.73-2.1,5.42-4.2l2.07-1.63c.79-.6,1.51-1.19,2.26-1.79a166.91,166.91,0,0,0,18.75-17.8q1.63-1.78,3.26-3.6L79,77.71c7.18-8.18,13.85-16.44,21.28-24.25q2.66-2.79,5.44-5.5c1.57-1.5,3.14-3,4.82-4.43,1.85-1.75,3.76-3.41,5.78-5,2.79-2.17,5.73-4.25,8.87-6.24.79-.5,1.58-1,2.31-1.45,78.37-48.73,136-32.8,174.54,0q4.37,3.77,8.42,7.69c1.64,1.57,3.22,3.22,4.72,4.87.17.17.33.35.49.54q1.62,1.73,3.15,3.46l.9,1c.45.52.9,1,1.34,1.57s1.07,1.29,1.61,1.93l1,1.23c2.14,2.64,4.19,5.32,6.13,8q.6.81,1.17,1.62c2.69,3.77,5.19,7.59,7.5,11.38l1,1.61c.33.53.65,1.07,1,1.63l.94,1.61.92,1.61.89,1.58c.31.53.6,1.07.88,1.57l.85,1.57c.29.53.56,1.06.84,1.57l.78,1.57.79,1.58c1,2.09,2,4.14,2.93,6.14.46,1,.91,2,1.35,3,1.95,4.49,3.63,8.79,5,12.79a.06.06,0,0,1,0,.06c.14.38.26.78.39,1.14s.26.78.38,1.16.2.59.29.89.28.88.41,1.33.29,1,.43,1.44c.26.88.51,1.76.78,2.64s.41,1.5.59,2.25a2.17,2.17,0,0,0,.11.42c0,.14.06.23.09.35.11.44.22.88.32,1.33.29,1.17.54,2.36.79,3.53.13.64.27,1.28.38,1.93l.07.36c.12.6.23,1.21.33,1.81.15.79.28,1.63.4,2.44.1.61.19,1.23.27,1.85a.68.68,0,0,0,0,.28c.06.41.11.79.16,1.24s.09.69.12,1c.15,1.25.27,2.49.37,3.74l.08.85.09,1.42c0,.53.06,1.06.09,1.58s0,.78,0,1.21c0,.6,0,1.21.05,1.8S363.73,151.69,363.73,152.39Z"/></g><path class="cls-4" d="M10.36,165.3c-.16-.1-.12-.17,0,0Z"/><path class="cls-5" d="M83.87,158.37A14.38,14.38,0,0,1,74,169.74l-1.95.64c-7,9.93-19.3,14.15-29.78,8l-3.06-1.8-8.59-10.22h-.1c-2.72.57-5.79.15-7.8-1.77a2.68,2.68,0,0,1-1.53,1.94,2.52,2.52,0,0,1-1.24.23,2.74,2.74,0,0,1-1.22-.36,2.64,2.64,0,0,1-.9-.89,2.68,2.68,0,0,1-.2-2.46,2.7,2.7,0,0,1,.76-1c-1.73,1.52-4.41.82-6.07-.84a52.72,52.72,0,0,1,1.57-13.59,55,55,0,0,1,2.66-8,55.94,55.94,0,0,1,2.82-5.77q.12-.24.27-.48a68.67,68.67,0,0,1,5.22-7.86l1-.9c.79-.68,1.5-1.35,2.27-2l.14-.13c1.21-1,2.45-2.1,3.7-3.14,1.93-1.62,3.88-3.19,5.86-4.77l.19-.15c1.69-1.34,3.4-2.67,5.1-4l2.56-2a7.19,7.19,0,0,1,1.51.35c2.1.73,2.46,2.66,3.93,4,1.93,1.77,3.79-1.2,6.77-1.11,9.15.29,5.6,9.68,10.07,8.5,19.31-5.09,16.07,19.61,7.67,25C80.56,149.23,84.83,151.94,83.87,158.37Z"/><path class="cls-6" d="M42.35,181.85A32.17,32.17,0,1,0,9.78,149.68,32.37,32.37,0,0,0,42.35,181.85Z"/><path class="cls-7" d="M42.35,177.71a29.34,29.34,0,1,0-29.7-29.33A29.51,29.51,0,0,0,42.35,177.71Z"/><path class="cls-1" d="M10.44,159.94C8.57,161.1,8,165,9.5,166.71s4.29.38,4.87-2.26a.87.87,0,0,0,.27.41,1,1,0,0,0,.44.2.91.91,0,0,0,.49-.07.88.88,0,0,0,.37-.32,1.64,1.64,0,0,0,.25-.81,1.86,1.86,0,0,0-.14-.84c-.14-.12-.09-.2,0,0,1,.79,2.61-.07,2.84-1.7-.7,4.33,3.23,8.1,6.12,5.9-.86,1.84.27,4.25,1.76,4.71s3.1-.41,4.53-1.39,2.9-2.1,4.46-2.17c1.36-.06,2.63.71,3.93,1.17,4.14,1.44,9-.47,12.14-4.81,2.09,3.58,7.24,2.26,8.64-2.19.3,2.08,1.72,3.67,3.31,3.69s3.2-1.53,3.75-3.59c0,2,1.79,2.94,3,1.67a7.37,7.37,0,0,0,1.82-7c2.14-.09,4.21-2.57,4.54-5.45s-1.13-5.77-3.2-6.33c3.56-1.47,6.29-6.29,6.47-11.24s-2.41-9.5-5.89-10.65a3.75,3.75,0,0,0-2.12-.18,3.67,3.67,0,0,0-1.87,1c-.42-2.81-1.69-5.32-3.57-6.57-3-2-7.15-.64-9.37,3.14a7.39,7.39,0,0,0,.17-6.59,3.43,3.43,0,0,0-4.62-1.7c-.35-3-2.68-5.15-5-4.57s-4.11,3.81-3.93,6.85a2.19,2.19,0,0,0-4.15-1c.08.19,0,.08,0,0-1.45-3-4.39-4.59-7.12-3.7-2.9.95-5.33,4.59-5.71,8.56a5.18,5.18,0,0,0-3.58-1.32A5.11,5.11,0,0,0,20,119.13a10.91,10.91,0,0,0-3,8.9c-2.26-2.23-6.06-1-7.61,2.44s-.48,8.31,2.13,9.76c-1.8.27-3.38,2.66-3.38,5.08s1.57,4.5,3.4,4.44c-1.82.15-3.54,2.31-3.81,4.75S8.68,159.41,10.44,159.94Z"/><g class="cls-8"><path class="cls-3" d="M40.38,148.67a3.45,3.45,0,0,0-3.15-.79,3.78,3.78,0,0,0-2.36,2.93c-.25,1.42.41,3,1.5,3.26,1.33.33,2.69-1.16,4-1a8.66,8.66,0,0,1,1.39.45c1.94.55,3.93-1.2,5.55-2.83a7.79,7.79,0,0,0,1.57-2,3.34,3.34,0,0,0,.38-1.27,3.48,3.48,0,0,0-.17-1.32c-.48-1.06-1.66-1.14-2.65-.94a10.59,10.59,0,0,0-5.5,3.22c.06-.4.11-.78.17-1.19Z"/><path class="cls-3" d="M68.77,144.79a4.49,4.49,0,0,0-1.68-1,1.62,1.62,0,0,0-1,.09,1.7,1.7,0,0,0-.76.69,2.59,2.59,0,0,0,.44,3,4.1,4.1,0,0,0,2.46.92c.9.12,2,.09,2.49-.95a2.2,2.2,0,0,0,.12-1.19,2.33,2.33,0,0,0-.5-1.08,3.9,3.9,0,0,0-1.74-1Z"/><path class="cls-3" d="M24.33,128.74a8.58,8.58,0,0,0-2.46,2.49,8.74,8.74,0,0,0-1.27,3.26c-.14.74-.14,1.67.36,2a1.32,1.32,0,0,0,1.22,0l5.22-1.89A7.88,7.88,0,0,0,25,136.35a4,4,0,0,0-.8,1.44,4,4,0,0,0-.14,1.64,2.24,2.24,0,0,0,.81,1.42,2.28,2.28,0,0,0,1.55.5,5.05,5.05,0,0,0,2.88-1.63,5.34,5.34,0,0,0,1.87-3.5c0-1.42-1.33-2.65-2.21-1.69a19.36,19.36,0,0,0,5.62-3.61,6.73,6.73,0,0,0,1.64-2,3.41,3.41,0,0,0,.39-1.33,3.55,3.55,0,0,0-.18-1.37c-1.7-4-4,2.16-5.15,2.77C29.25,130.1,27,127.18,24.33,128.74Z"/><path class="cls-3" d="M15.93,146.77a2.53,2.53,0,0,0-.07,1.19,2.59,2.59,0,0,0,.49,1.08,1.11,1.11,0,0,0,.46.23.91.91,0,0,0,.52,0,1,1,0,0,0,.44-.28,1.09,1.09,0,0,0,.25-.46,6.39,6.39,0,0,0-3.15,2.43c-.78,1.29-.6,3.45.54,3.86.72.26,1.49-.24,2.16-.74A44.78,44.78,0,0,0,23,149.21a2.58,2.58,0,0,0-.12,1.07,2.63,2.63,0,0,0,.34,1A2.52,2.52,0,0,0,25,152.47c1.29.06,2.52-.9,3.64-1.83,1.38-1.14,3-2.84,2.64-4.78a2.19,2.19,0,0,0-.41-1,2.3,2.3,0,0,0-.81-.71,2.33,2.33,0,0,0-2.1-.06c-1.34.59-2.36,2-3.31,3.38A2.46,2.46,0,0,0,23.1,144c-1.27-.14-2.48.89-3.28,2.1,1.46-1.1,1.83-3.75-.09-3.93C18.46,142,16.26,145.45,15.93,146.77Z"/><path class="cls-3" d="M55.66,138.44c-1.09-.45-2.47.54-2.79,2s.5,3,1.64,3.19a3.45,3.45,0,0,0-1.27.56,3.55,3.55,0,0,0-1,1,2.83,2.83,0,0,0-.49,1.69,1.57,1.57,0,0,0,.49,1,1.6,1.6,0,0,0,1,.42,4.21,4.21,0,0,0,2-.85,3.39,3.39,0,0,0-2,.86,2,2,0,0,0-.34,2.36c.41.5,1.09.37,1.66.13a8.77,8.77,0,0,0,3.44-2.65,2.76,2.76,0,0,0,2.82,1.36,2.72,2.72,0,0,0,1.68-3.06,2,2,0,0,0-1.73-1.53,4.59,4.59,0,0,0-2.26.59,5.74,5.74,0,0,0,1.86-2.66c.29-1.13-.27-2.58-1.18-2.44s-1.58,2-2.41,2.67C55.91,142,57.83,139.35,55.66,138.44Z"/><path class="cls-3" d="M37.26,134.13c-1.18,1.07-1.63,3.09-1.58,4.88,0,2,.72,4.05,2.13,4.76,1.86.93,4.24-1.2,4.63-3.79a6.36,6.36,0,0,0-2.68-6.23,2.35,2.35,0,0,0-1.31-.2A2.23,2.23,0,0,0,37.26,134.13Z"/><path class="cls-3" d="M50.4,131.19l.47.5a2.06,2.06,0,0,0-1.67-1,2,2,0,0,0-1,.2,2.14,2.14,0,0,0-.76.64,3.68,3.68,0,0,0-.75,2.17,3.76,3.76,0,0,0,.65,2.2,2.22,2.22,0,0,0,.85.53,2.12,2.12,0,0,0,1.93-.29,2.16,2.16,0,0,0,.65-.76,3.15,3.15,0,0,0,4.11-1.23c1-1.52.79-4.07-.46-4.93s-3.29.67-3.15,2.56l-.55-.79Z"/><path class="cls-3" d="M64.81,133.28a10.73,10.73,0,0,0-2.31,4.14c-.37,1.63.15,3.63,1.41,3.93s2.45-1.06,3.2-2.47a6.34,6.34,0,0,0,.84-4.25c-.35-1.39-1.93-2.13-2.74-1Z"/><path class="cls-3" d="M44.14,124.88a1.69,1.69,0,0,0-.46-.77,1.79,1.79,0,0,0-.77-.46,1.92,1.92,0,0,0-.89,0,1.85,1.85,0,0,0-.8.41,4,4,0,0,0-1,1.83,4,4,0,0,0,0,2.1,3,3,0,0,0,1,1.55,3.14,3.14,0,0,0,1.67.74A3,3,0,0,0,44,130a2.92,2.92,0,0,0,1-.72,2.76,2.76,0,0,0,.59-1A3,3,0,0,0,45.7,127a2.53,2.53,0,0,0,1.16,1,2.59,2.59,0,0,0,1.53.14,7,7,0,0,0,2.86-1.53c1.21-1,2.5-2.35,2.41-4.12a2.53,2.53,0,0,0-.64-1.64,2.57,2.57,0,0,0-1.56-.82,4.08,4.08,0,0,0-1.7.47,4,4,0,0,0-1.33,1.15c-.67.74-1.23,1.66-2,2.35a2,2,0,0,1-2.44.59Z"/></g><path class="cls-9" d="M280.91,173.55H99.6v76.36H280.91Z"/><path class="cls-6" d="M120.45,178.18H103.39v9.44h17.06Z"/><path class="cls-6" d="M276.71,224.2H249.85v9.44h26.86Z"/><path class="cls-6" d="M276.71,190H260.13v9.44h16.58Z"/><path class="cls-6" d="M120.45,212.56H103.39V222h17.06Z"/><path class="cls-6" d="M117.2,201.19H103.39v9.44H117.2Z"/><path class="cls-6" d="M112.83,189.68h-9.44v9.44h9.44Z"/><path class="cls-6" d="M124.89,189.68h-9.44v9.44h9.44Z"/><path class="cls-6" d="M136.94,189.68H127.5v9.44h9.44Z"/><path class="cls-6" d="M149,189.68h-9.44v9.44H149Z"/><path class="cls-6" d="M161,189.68H151.6v9.44H161Z"/><path class="cls-6" d="M173.09,189.68h-9.44v9.44h9.44Z"/><path class="cls-6" d="M185.14,189.68H175.7v9.44h9.44Z"/><path class="cls-6" d="M197.2,189.68h-9.44v9.44h9.44Z"/><path class="cls-6" d="M209.25,189.68h-9.44v9.44h9.44Z"/><path class="cls-6" d="M221.3,189.68h-9.44v9.44h9.44Z"/><path class="cls-6" d="M233.36,189.68h-9.44v9.44h9.44Z"/><path class="cls-6" d="M245.4,189.68H236v9.44h9.43Z"/><path class="cls-6" d="M257.46,189.68H248v9.44h9.44Z"/><path class="cls-6" d="M112.83,235.85h-9.44v9.44h9.44Z"/><path class="cls-6" d="M124.89,235.85h-9.44v9.44h9.44Z"/><path class="cls-6" d="M136.94,235.85H127.5v9.44h9.44Z"/><path class="cls-6" d="M151.07,235.85H139.55v9.44h11.52Z"/><path class="cls-6" d="M211.33,235.85H153.68v9.44h57.65Z"/><path class="cls-6" d="M240.15,235.85h-9.44v9.44h9.44Z"/><path class="cls-6" d="M252.2,235.85h-9.44v9.44h9.44Z"/><path class="cls-6" d="M264.28,235.85h-9.44v9.44h9.44Z"/><path class="cls-6" d="M228.35,235.85H213.69v9.44h14.66Z"/><path class="cls-6" d="M276.71,235.85h-9.44v9.44h9.44Z"/><path class="cls-6" d="M129.32,201.19h-9.44v9.44h9.44Z"/><path class="cls-6" d="M141.37,201.19h-9.44v9.44h9.44Z"/><path class="cls-6" d="M153.43,201.19H144v9.44h9.44Z"/><path class="cls-6" d="M165.48,201.19H156v9.44h9.44Z"/><path class="cls-6" d="M177.53,201.19h-9.44v9.44h9.44Z"/><path class="cls-6" d="M189.58,201.19h-9.44v9.44h9.44Z"/><path class="cls-6" d="M201.63,201.19h-9.44v9.44h9.44Z"/><path class="cls-6" d="M213.69,201.19h-9.44v9.44h9.44Z"/><path class="cls-6" d="M225.74,201.19H216.3v9.44h9.44Z"/><path class="cls-6" d="M237.79,201.19h-9.44v9.44h9.44Z"/><path class="cls-6" d="M249.85,201.19h-9.44v9.44h9.44Z"/><path class="cls-6" d="M261.9,201.19h-9.44v9.44h9.44Z"/><path class="cls-6" d="M276.71,201.19v20.95h-9.44v-11.5H264.5v-9.45Z"/><path class="cls-6" d="M132.09,212.7h-9.44v9.44h9.44Z"/><path class="cls-6" d="M144.14,212.7H134.7v9.44h9.44Z"/><path class="cls-6" d="M156.19,212.7h-9.44v9.44h9.44Z"/><path class="cls-6" d="M168.24,212.7H158.8v9.44h9.44Z"/><path class="cls-6" d="M180.29,212.7h-9.44v9.44h9.44Z"/><path class="cls-6" d="M192.35,212.7h-9.44v9.44h9.44Z"/><path class="cls-6" d="M204.4,212.7H195v9.44h9.44Z"/><path class="cls-6" d="M216.45,212.7H207v9.44h9.44Z"/><path class="cls-6" d="M228.51,212.7h-9.44v9.44h9.44Z"/><path class="cls-6" d="M240.56,212.7h-9.44v9.44h9.44Z"/><path class="cls-6" d="M252.6,212.7h-9.44v9.44h9.44Z"/><path class="cls-6" d="M264.66,212.7h-9.44v9.44h9.44Z"/><path class="cls-6" d="M127,224.2h-9.44v9.44H127Z"/><path class="cls-6" d="M139,224.2h-9.44v9.44H139Z"/><path class="cls-6" d="M151.07,224.2h-9.44v9.44h9.44Z"/><path class="cls-6" d="M163.12,224.2h-9.44v9.44h9.44Z"/><path class="cls-6" d="M175.17,224.2h-9.44v9.44h9.44Z"/><path class="cls-6" d="M187.23,224.2h-9.44v9.44h9.44Z"/><path class="cls-6" d="M199.27,224.2h-9.44v9.44h9.44Z"/><path class="cls-6" d="M211.33,224.2h-9.44v9.44h9.44Z"/><path class="cls-6" d="M223.38,224.2h-9.44v9.44h9.44Z"/><path class="cls-6" d="M235.43,224.2H226v9.44h9.44Z"/><path class="cls-6" d="M247.49,224.2h-9.44v9.44h9.44Z"/><path class="cls-6" d="M132.09,178.74h-9.44v9.44h9.44Z"/><path class="cls-6" d="M144.14,178.74H134.7v9.44h9.44Z"/><path class="cls-6" d="M156.19,178.74h-9.44v9.44h9.44Z"/><path class="cls-6" d="M168.24,178.74H158.8v9.44h9.44Z"/><path class="cls-6" d="M180.29,178.74h-9.44v9.44h9.44Z"/><path class="cls-6" d="M192.35,178.74h-9.44v9.44h9.44Z"/><path class="cls-6" d="M204.4,178.74H195v9.44h9.44Z"/><path class="cls-6" d="M216.45,178.74H207v9.44h9.44Z"/><path class="cls-6" d="M228.51,178.74h-9.44v9.44h9.44Z"/><path class="cls-6" d="M240.56,178.74h-9.44v9.44h9.44Z"/><path class="cls-6" d="M252.6,178.74h-9.44v9.44h9.44Z"/><path class="cls-6" d="M264.66,178.74h-9.44v9.44h9.44Z"/><path class="cls-6" d="M276.71,178.74h-9.44v9.44h9.44Z"/><path class="cls-6" d="M114.83,224.2H103.39v9.44h11.44Z"/><path class="cls-10" d="M99.6,174l3.79-1.26H278.45l2.49,1.25Z"/><path class="cls-5" d="M229,305l-3.69-22.2a18.06,18.06,0,0,0-5-8.69c-7.33-7.08-17-14.34-17.44-23.58-.64-14.15-2.85-13.75-2.61-17.25a41.4,41.4,0,0,0,2.52-5.19,28.92,28.92,0,0,0,1.07-4.19,2.86,2.86,0,0,1,1.14-1.73,2.81,2.81,0,0,1,2-.51,4.88,4.88,0,0,1,2.67,1.25,7.39,7.39,0,0,1,2,5.11,22.06,22.06,0,0,1-.79,5.54,36.45,36.45,0,0,1,2.36,9.76c.84-2.59,1.48-5.21,2.32-7.8.17-.09.11-.3.27-.39-1.19-2.55-.18-2.41-2.53-8-3.93-9.43-8.36-18.53-11.51-30.38a6.59,6.59,0,0,1,.07-3.33c1.14-3.39,4.63-2.61,6.15-.64a6.26,6.26,0,0,1,.94,1.72A91.46,91.46,0,0,0,216.5,209l8.56,13s3-2.44,3.43-3.53.67-10,.67-10-.68,1.66-2.18,1.57c-1.08-.08-3.28.55-4.85-1.21a4.09,4.09,0,0,1-.14-5.14l3.88-5.23a5.84,5.84,0,0,1,2.93-1.23,6,6,0,0,1,3.15.49,28.88,28.88,0,0,1,6.84,4.8,13.87,13.87,0,0,1,6,1.15c2.75,1.32,5.62,5.11,5.62,5.11s3.2.19,4.64,1.24c.36.26,5.24,7.86,3.48,13.78-1,3.52-1.69,8.64-2.16,10l-2.4,34.65,4.84,22.79-10.34,5.77a73.89,73.89,0,0,1-11.81,5.28Z"/><path class="cls-3" d="M258.37,264.51l.09-34.75c.38-1.4.68-6.55,1.49-10.15,1.36-6-4-13.28-4.39-13.52-1.51-.93-4.72-.92-4.72-.92s-3.14-3.59-6-4.71a14,14,0,0,0-6-.79,29,29,0,0,0-7.15-4.33,5.88,5.88,0,0,0-6,1.13L222.19,202a4.08,4.08,0,0,0,.48,5.12c1.68,1.66,3.83.88,4.92.88,1.5,0,2.06-1.7,2.06-1.7s.37,8.85,0,10-3.2,3.75-3.2,3.75L217,207.57a89.88,89.88,0,0,1-8.46-14A6.83,6.83,0,0,0,207.5,192c-1.65-1.87-5.18-2.41-6.1,1a6.71,6.71,0,0,0,.15,3.33c3.93,11.62,8.94,20.4,13.51,29.55,2.71,5.43,1.7,5.37,3.06,7.82-.16.11-.08.32-.26.42-.66,2.64-1.12,5.29-1.79,7.93a36.2,36.2,0,0,0-3-9.58,21.84,21.84,0,0,0,.42-5.59,7.36,7.36,0,0,0-2.36-5,4.84,4.84,0,0,0-2.74-1.07,2.85,2.85,0,0,0-3,2.45,28.93,28.93,0,0,1-.79,4.25,41.31,41.31,0,0,1-2.17,5.35c0,3.5,2.17,2.93,3.75,17,1.23,11,15.38,18.24,23.08,26.18l8.2,25.82a158.93,158.93,0,0,0,27.48-14.37Z"/><path class="cls-1" d="M254.34,217.29a6,6,0,0,1,1.8-2.71,2.28,2.28,0,0,1,1.53-.51,2.21,2.21,0,0,1,1.48.61c-.58-1.8-1.21-3.59-1.87-5.37a8.28,8.28,0,0,0-2.18-3.68,2.94,2.94,0,0,0-3.93,0,42.8,42.8,0,0,1,.22,12.43c-.29,2.23-.67,4.79.83,6.47.42.33,1.14-.27.87-.74-.12-.22-.56-.23-.78-.22A40,40,0,0,1,254.34,217.29Z"/><path class="cls-1" d="M254.34,217.29a6,6,0,0,1,1.8-2.71,2.28,2.28,0,0,1,1.53-.51,2.21,2.21,0,0,1,1.48.61c-.58-1.8-1.21-3.59-1.87-5.37a8.28,8.28,0,0,0-2.18-3.68,2.94,2.94,0,0,0-3.93,0,42.8,42.8,0,0,1,.22,12.43c-.29,2.23-.67,4.79.83,6.47.42.33,1.14-.27.87-.74-.12-.22-.56-.23-.78-.22A40,40,0,0,1,254.34,217.29Z"/><path class="cls-11" d="M254.34,217.29a6,6,0,0,1,1.8-2.71,2.28,2.28,0,0,1,1.53-.51,2.21,2.21,0,0,1,1.48.61c-.58-1.8-1.21-3.59-1.87-5.37a8.28,8.28,0,0,0-2.18-3.68,2.94,2.94,0,0,0-3.93,0,42.8,42.8,0,0,1,.22,12.43c-.29,2.23-.67,4.79.83,6.47.42.33,1.14-.27.87-.74-.12-.22-.56-.23-.78-.22A40,40,0,0,1,254.34,217.29Z"/><path class="cls-1" d="M241.8,213.57a22,22,0,0,0,.42,4.51,5.61,5.61,0,0,0,.89,2.07,5.48,5.48,0,0,0,1.63,1.55c-.79-2.92-.36-6,.06-9l.79-5.5a4,4,0,0,1,.55-1.82,1.42,1.42,0,0,1,1.66-.6c-.78.45-1.78-.16-2.25-.93a23.74,23.74,0,0,0-1.21-2.42c-1.05-1.35-3.3-1.65-4.85-1.29C240,204.64,241.62,208.93,241.8,213.57Z"/><path class="cls-1" d="M241.8,213.57a22,22,0,0,0,.42,4.51,5.61,5.61,0,0,0,.89,2.07,5.48,5.48,0,0,0,1.63,1.55c-.79-2.92-.36-6,.06-9l.79-5.5a4,4,0,0,1,.55-1.82,1.42,1.42,0,0,1,1.66-.6c-.78.45-1.78-.16-2.25-.93a23.74,23.74,0,0,0-1.21-2.42c-1.05-1.35-3.3-1.65-4.85-1.29C240,204.64,241.62,208.93,241.8,213.57Z"/><g class="cls-12"><path class="cls-3" d="M241.8,213.57a22,22,0,0,0,.42,4.51,5.61,5.61,0,0,0,.89,2.07,5.48,5.48,0,0,0,1.63,1.55c-.79-2.92-.36-6,.06-9l.79-5.5a4,4,0,0,1,.55-1.82,1.42,1.42,0,0,1,1.66-.6c-.78.45-1.78-.16-2.25-.93a23.74,23.74,0,0,0-1.21-2.42c-1.05-1.35-3.3-1.65-4.85-1.29C240,204.64,241.62,208.93,241.8,213.57Z"/></g><path class="cls-1" d="M229,201.45a2.76,2.76,0,0,1-.83-1.65,2.32,2.32,0,0,0-.31-.88,2.13,2.13,0,0,0-.61-.69c-2.42,1.53-1.1,6-3.54,7.5-.47.29-1.08.46-1.34,1a1.22,1.22,0,0,0-.08.73,1.28,1.28,0,0,0,.34.65,2.36,2.36,0,0,0,1.34.63,5.42,5.42,0,0,0,5.14-2.23,6.36,6.36,0,0,0,1.15-5,1.19,1.19,0,0,1-1.26,0Z"/><path class="cls-1" d="M203.87,230.84c0,.16-.07.37.07.48s.48-.09.63-.31a4.24,4.24,0,0,1,4.68-1.52c.64,0,.86-1,.44-1.46a2.4,2.4,0,0,0-.82-.47,2.13,2.13,0,0,0-.94-.09,3.5,3.5,0,0,1-1.86-.31,1.9,1.9,0,0,1-.71-.87,1.83,1.83,0,0,1-.07-1.11C204.89,227.07,204.39,229,203.87,230.84Z"/><g class="cls-12"><path class="cls-3" d="M229,201.45a2.76,2.76,0,0,1-.83-1.65,2.32,2.32,0,0,0-.31-.88,2.13,2.13,0,0,0-.61-.69c-2.42,1.53-1.1,6-3.54,7.5-.47.29-1.08.46-1.34,1a1.22,1.22,0,0,0-.08.73,1.28,1.28,0,0,0,.34.65,2.36,2.36,0,0,0,1.34.63,5.42,5.42,0,0,0,5.14-2.23,6.36,6.36,0,0,0,1.15-5,1.19,1.19,0,0,1-1.26,0Z"/><path class="cls-3" d="M203.87,230.84c0,.16-.07.37.07.48s.48-.09.63-.31a4.24,4.24,0,0,1,4.68-1.52c.64,0,.86-1,.44-1.46a2.4,2.4,0,0,0-.82-.47,2.13,2.13,0,0,0-.94-.09,3.5,3.5,0,0,1-1.86-.31,1.9,1.9,0,0,1-.71-.87,1.83,1.83,0,0,1-.07-1.11C204.89,227.07,204.39,229,203.87,230.84Z"/></g><path class="cls-1" d="M235.88,200.85a10.51,10.51,0,0,1-4-.92c-1.5-.88-2.53-2.75-4.26-2.83s-2.7,1.35-3.57,2.62a4.79,4.79,0,0,1,3.09-4.43,7.73,7.73,0,0,1,5.62.22,21.26,21.26,0,0,1,4.88,3.05,6.48,6.48,0,0,1,1.65,1.57C241.2,203.22,237.09,201,235.88,200.85Z"/><path class="cls-11" d="M235.88,200.85a10.51,10.51,0,0,1-4-.92c-1.5-.88-2.53-2.75-4.26-2.83s-2.7,1.35-3.57,2.62a4.79,4.79,0,0,1,3.09-4.43,7.73,7.73,0,0,1,5.62.22,21.26,21.26,0,0,1,4.88,3.05,6.48,6.48,0,0,1,1.65,1.57C241.2,203.22,237.09,201,235.88,200.85Z"/><path class="cls-1" d="M211.29,245.49a3.65,3.65,0,0,0,.25-.53.6.6,0,0,0-.19.23A.77.77,0,0,0,211.29,245.49Z"/><path class="cls-1" d="M213.63,233.31c-.16-1.93.11-3.88,0-5.82a7.61,7.61,0,0,0-2-5.32c-2-1.91-7.58-.94-5.72,2.69a2.34,2.34,0,0,0,1.24,1.08,2.32,2.32,0,0,0,1.64,0,2.07,2.07,0,0,0,.67-.5,2,2,0,0,0,.42-.71,2.11,2.11,0,0,0,.11-.82,2.07,2.07,0,0,0-.21-.81,10.11,10.11,0,0,1-.48,11.45A9.12,9.12,0,0,1,211.54,245a1.18,1.18,0,0,1,.65-.2,1.16,1.16,0,0,1,.65.2,4,4,0,0,1,1,1.78c.27.63.79,1.3,1.48,1.25a11.83,11.83,0,0,0,0-7.37A40.79,40.79,0,0,1,213.63,233.31Z"/><path class="cls-1" d="M234,196.87a7.93,7.93,0,0,0-3.72-1.58Z"/><path class="cls-1" d="M243.2,221.46c-.29-1.34-.92-2.58-1.28-3.93-.86-3.07-.32-6.36-.71-9.53a16.52,16.52,0,0,0-5.84-10.57l-1.41-.59a7.9,7.9,0,0,1,2.83,4.11,75,75,0,0,1,1.92,11.56A155.93,155.93,0,0,0,242,230.33C242.91,227.44,243.86,224.41,243.2,221.46Z"/><path class="cls-1" d="M228.24,207.49a5,5,0,0,0,1.66-3.23,13.18,13.18,0,0,0-.09-3.32,1.06,1.06,0,0,1-.48.6,1.07,1.07,0,0,1-.76.14,2.78,2.78,0,0,1-1.49-1.35l-.28,1-.12-.54-.37.48c.55,1.57,1.1,3.4.23,4.84a5.67,5.67,0,0,1-1.77,1.64,3,3,0,0,0,3.47-.25Z"/><path class="cls-1" d="M229.76,200.55l.05.39A.59.59,0,0,0,229.76,200.55Z"/><path class="cls-1" d="M225.65,216.45c-2.75-5.41-5.5-10.83-8.54-16.09a51.66,51.66,0,0,0-6-8.78c-1-1.17-4-3.89-5.71-2.1-1.11,1.19.35,3.36-1,4.66.31,0,1.84-.15,2,.05a23.93,23.93,0,0,1,5.27,15.24c1.11-.87,2.64.34,3.5,1.46a255.78,255.78,0,0,1,14.93,21.3c-.89-3.25-.92-6.7-1.87-9.92A35.51,35.51,0,0,0,225.65,216.45Z"/><path class="cls-1" d="M257.67,229.65a34.22,34.22,0,0,0,2.46-10.88,17.75,17.75,0,0,0-2.46-9.85c-.46-.73-2.36-3.75-3.38-3.5-1.84.44.58,3.65,1,4.45,1.57,3,3.23,6.22,3.15,9.64-.08,2.63-1.19,5.11-2.08,7.59a16.56,16.56,0,0,0-1.11,5.39c-.13.2-.26.41-.41.6a8.06,8.06,0,0,1-4.93,3.27c.78-2.36,1.52-4.72,2.28-7.08a3,3,0,0,0-.12-2.57,2.13,2.13,0,0,0,.24-1,5.13,5.13,0,0,0-.66-1.81c-1.06-2.26-.7-4.9-.44-7.38a23.32,23.32,0,0,0-.47-9.16,9.85,9.85,0,0,0-5.9-6.66l.79.78-1-.72,1.84,3.84-.67,1a2.18,2.18,0,0,1,2.77,1.29,6.69,6.69,0,0,1,.23,3.38,67.76,67.76,0,0,0,.93,19.07,9.3,9.3,0,0,1-1.13,4.19,4.16,4.16,0,0,1-3.93,2.13,4.17,4.17,0,0,0-.15-2.32,4.12,4.12,0,0,0-1.37-1.87c-1.57,2.2-.65,5.62-.41,8.13a89.7,89.7,0,0,0,1.83,11.29,36.39,36.39,0,0,1,2-9.44c.85,3.11,1.7,6.21,2.56,9.32a5.39,5.39,0,0,1,.49-2.54,1.9,1.9,0,0,1,.9-.89,2,2,0,0,1,1.27-.12,2.66,2.66,0,0,1,1.29,1.62,28.78,28.78,0,0,1,1.57,17,2.4,2.4,0,0,0,3-1.17,7.15,7.15,0,0,0,.55-3.54Q257.95,245.38,257.67,229.65Z"/><path class="cls-1" d="M231,233c-.5.88,1.57,4.38,1.89,5.21l5.2,12.7a60.09,60.09,0,0,0-4-16.26C233.74,233.76,232,231.22,231,233Z"/><path class="cls-1" d="M233.72,210.56c-.3.45-.72,1-1.23.84s-.56-.79-.56-1.28q.09-4.41.15-8.83c-2.36,1.71-2.07,3.93-2.24,6.48-.09,1.47.33,8.49-.67,9.34A26.21,26.21,0,0,0,235,210C234.61,209.65,234,210.11,233.72,210.56Z"/><g class="cls-12"><path class="cls-3" d="M211.29,245.49a3.65,3.65,0,0,0,.25-.53.6.6,0,0,0-.19.23A.77.77,0,0,0,211.29,245.49Z"/><path class="cls-3" d="M213.63,233.31c-.16-1.93.11-3.88,0-5.82a7.61,7.61,0,0,0-2-5.32c-2-1.91-7.58-.94-5.72,2.69a2.34,2.34,0,0,0,1.24,1.08,2.32,2.32,0,0,0,1.64,0,2.07,2.07,0,0,0,.67-.5,2,2,0,0,0,.42-.71,2.11,2.11,0,0,0,.11-.82,2.07,2.07,0,0,0-.21-.81,10.11,10.11,0,0,1-.48,11.45A9.12,9.12,0,0,1,211.54,245a1.18,1.18,0,0,1,.65-.2,1.16,1.16,0,0,1,.65.2,4,4,0,0,1,1,1.78c.27.63.79,1.3,1.48,1.25a11.83,11.83,0,0,0,0-7.37A40.79,40.79,0,0,1,213.63,233.31Z"/><path class="cls-3" d="M234,196.87a7.93,7.93,0,0,0-3.72-1.58Z"/><path class="cls-3" d="M243.2,221.46c-.29-1.34-.92-2.58-1.28-3.93-.86-3.07-.32-6.36-.71-9.53a16.52,16.52,0,0,0-5.84-10.57l-1.41-.59a7.9,7.9,0,0,1,2.83,4.11,75,75,0,0,1,1.92,11.56A155.93,155.93,0,0,0,242,230.33C242.91,227.44,243.86,224.41,243.2,221.46Z"/><path class="cls-3" d="M228.24,207.49a5,5,0,0,0,1.66-3.23,13.18,13.18,0,0,0-.09-3.32,1.06,1.06,0,0,1-.48.6,1.07,1.07,0,0,1-.76.14,2.78,2.78,0,0,1-1.49-1.35l-.28,1-.12-.54-.37.48c.55,1.57,1.1,3.4.23,4.84a5.67,5.67,0,0,1-1.77,1.64,3,3,0,0,0,3.47-.25Z"/><path class="cls-3" d="M229.76,200.55l.05.39A.59.59,0,0,0,229.76,200.55Z"/><path class="cls-3" d="M225.65,216.45c-2.75-5.41-5.5-10.83-8.54-16.09a51.66,51.66,0,0,0-6-8.78c-1-1.17-4-3.89-5.71-2.1-1.11,1.19.35,3.36-1,4.66.31,0,1.84-.15,2,.05a23.93,23.93,0,0,1,5.27,15.24c1.11-.87,2.64.34,3.5,1.46a255.78,255.78,0,0,1,14.93,21.3c-.89-3.25-.92-6.7-1.87-9.92A35.51,35.51,0,0,0,225.65,216.45Z"/><path class="cls-3" d="M257.67,229.65a34.22,34.22,0,0,0,2.46-10.88,17.75,17.75,0,0,0-2.46-9.85c-.46-.73-2.36-3.75-3.38-3.5-1.84.44.58,3.65,1,4.45,1.57,3,3.23,6.22,3.15,9.64-.08,2.63-1.19,5.11-2.08,7.59a16.56,16.56,0,0,0-1.11,5.39c-.13.2-.26.41-.41.6a8.06,8.06,0,0,1-4.93,3.27c.78-2.36,1.52-4.72,2.28-7.08a3,3,0,0,0-.12-2.57,2.13,2.13,0,0,0,.24-1,5.13,5.13,0,0,0-.66-1.81c-1.06-2.26-.7-4.9-.44-7.38a23.32,23.32,0,0,0-.47-9.16,9.85,9.85,0,0,0-5.9-6.66l.79.78-1-.72,1.84,3.84-.67,1a2.18,2.18,0,0,1,2.77,1.29,6.69,6.69,0,0,1,.23,3.38,67.76,67.76,0,0,0,.93,19.07,9.3,9.3,0,0,1-1.13,4.19,4.16,4.16,0,0,1-3.93,2.13,4.17,4.17,0,0,0-.15-2.32,4.12,4.12,0,0,0-1.37-1.87c-1.57,2.2-.65,5.62-.41,8.13a89.7,89.7,0,0,0,1.83,11.29,36.39,36.39,0,0,1,2-9.44c.85,3.11,1.7,6.21,2.56,9.32a5.39,5.39,0,0,1,.49-2.54,1.9,1.9,0,0,1,.9-.89,2,2,0,0,1,1.27-.12,2.66,2.66,0,0,1,1.29,1.62,28.78,28.78,0,0,1,1.57,17,2.4,2.4,0,0,0,3-1.17,7.15,7.15,0,0,0,.55-3.54Q257.95,245.38,257.67,229.65Z"/><path class="cls-3" d="M231,233c-.5.88,1.57,4.38,1.89,5.21l5.2,12.7a60.09,60.09,0,0,0-4-16.26C233.74,233.76,232,231.22,231,233Z"/><path class="cls-3" d="M233.72,210.56c-.3.45-.72,1-1.23.84s-.56-.79-.56-1.28q.09-4.41.15-8.83c-2.36,1.71-2.07,3.93-2.24,6.48-.09,1.47.33,8.49-.67,9.34A26.21,26.21,0,0,0,235,210C234.61,209.65,234,210.11,233.72,210.56Z"/></g><path class="cls-3" d="M204.84,230.41a9.94,9.94,0,0,0-2.3,2.58Z"/><path class="cls-13" d="M237.49,301.93l-8.21-25.83c-7.7-7.93-21.85-15.18-23.07-26.17-1.57-14.1-3.75-13.53-3.75-17a42.78,42.78,0,0,0,2.17-5.35,29.15,29.15,0,0,0,.78-4.25,2.85,2.85,0,0,1,3-2.45,4.77,4.77,0,0,1,2.74,1.07,7.34,7.34,0,0,1,2.36,5,21.43,21.43,0,0,1-.41,5.59,36.57,36.57,0,0,1,3,9.58c.66-2.65,1.13-5.29,1.79-7.93.17-.11.09-.31.25-.42-1.35-2.45-.35-2.36-3.06-7.82-4.56-9.15-9.57-17.93-13.51-29.55a7,7,0,0,1-.15-3.33c.92-3.45,4.45-2.91,6.1-1a6.77,6.77,0,0,1,1.06,1.64,89.57,89.57,0,0,0,8.47,14L226.51,220s2.81-2.63,3.2-3.75,0-10,0-10-.57,1.7-2.07,1.7c-1.08,0-3.24.78-4.92-.88a4.12,4.12,0,0,1-.48-5.13l3.51-5.5a5.91,5.91,0,0,1,6-1.13,29,29,0,0,1,7.15,4.33,14,14,0,0,1,6,.79c2.83,1.14,6,4.71,6,4.71s3.2,0,4.72.92c.37.24,5.75,7.5,4.38,13.52-.79,3.59-1.11,8.75-1.48,10.15l-.1,34.75,6.49,23"/><path class="cls-13" d="M239.76,200.93a61.86,61.86,0,0,1,2.14,15.72,8.4,8.4,0,0,0,.28,2.64,2.6,2.6,0,0,0,.67,1.13,2.51,2.51,0,0,0,1.13.67"/><path class="cls-13" d="M250.85,206.09c2.36,4.92,0,15.92.12,16.69a2.78,2.78,0,0,0,1.33,1.89"/><path class="cls-13" d="M230.59,200.26c-.28,1.57-.5,3.37-.79,4.94a9.2,9.2,0,0,1-2.2-2.83,9.1,9.1,0,0,1-.94-3.46"/><path class="cls-13" d="M215.53,242.2l-1.71.71"/><path class="cls-13" d="M216,243.56a9.83,9.83,0,0,0,0,4"/><path class="cls-13" d="M225.9,228.87l1.88,3.39"/><path class="cls-13" d="M229.54,216.47l1.87-2.64"/><path class="cls-13" d="M255.82,228.87l-.57,2.07"/><path class="cls-13" d="M251.24,223.21q.8-2.66,1.66-5.29"/><path class="cls-13" d="M256.78,213.83a2.15,2.15,0,0,1,1.61-.15,2.12,2.12,0,0,1,1.25,1"/><path class="cls-13" d="M245.48,204.81a4.1,4.1,0,0,1,3.78.87"/><path class="cls-13" d="M210.48,210.06a5.68,5.68,0,0,1,4.87-1.84"/><path class="cls-13" d="M203.38,195.23a5.38,5.38,0,0,1,1.87-.85,5.29,5.29,0,0,1,2.06-.08"/><path class="cls-13" d="M204.84,230.41a9.94,9.94,0,0,0-2.3,2.58"/><path class="cls-13" d="M205.59,226.84c1.25-.89,3.23,1.09,4.37.08a1.91,1.91,0,0,0,.41-.8,1.83,1.83,0,0,0,0-.9,6.1,6.1,0,0,1-.23-1.8"/><path class="cls-13" d="M240.64,221.38a14.28,14.28,0,0,1,.87,10.08"/><path class="cls-13" d="M249.78,226.23a6.57,6.57,0,0,1-.79,4.32"/><path class="cls-5" d="M173.78,238a5,5,0,0,1-.07,1.63c-.51,2.36-2,9.26-2.53,13-.65,4.6-8.09,18.86-8.09,18.86s-6.86,8.52-10.35,12.95c-1.71,2.18-4.42,11-6.72,19.39q-4.36-1.32-8.65-2.85c-2.36-.84-4.72-1.73-7.07-2.65a115.91,115.91,0,0,1-12.28-6c1.3-4.72,2.18-8.39,2.16-8.6,0-.5,2.8-6,2.8-6l-2.48-32.6-1.46-5a37.93,37.93,0,0,1-.42-19.91l4.26-6.34,2-.15,6.18-8.64s3.34-1,4.19,1.51-2.78,7.21-2.78,7.21l-1.25,7.76,3,7.26,1.58.57s.51-12.79.16-15.34l3.22-11.63a54.47,54.47,0,0,0,2.57-5.86c.59-2,4.11-3.93,6.13-.47a5.23,5.23,0,0,1,.6,2,5.05,5.05,0,0,1-.29,2.11c-.82,2.39-1.51,4.28-1.51,4.28s-.78,9.89-1,10.16,1.45,14.73,1.45,14.73l1.29.57.46-13.79,2.68-13s-.22-6.23,4.17-5.5a3.45,3.45,0,0,1,1.93.51,3.38,3.38,0,0,1,1.3,1.5c1.17,2.24.06,17.16.06,17.16l1.08,15.42,1.74,11.9,2-8.15s.12-11.68,7.49-12.68c0,0,2.2-.4,2.64,1.13s-1.09,4.64-.87,7.62C173.33,234.45,173.63,236.81,173.78,238Z"/><path class="cls-3" d="M171.54,223.59c-.34-1.57-2.55-1.33-2.55-1.33-7.43.44-8.43,12.08-8.43,12.08l-2.66,8-.79-12,.08-15.46s2.25-14.79,1.25-17.11a3.38,3.38,0,0,0-3.07-2.25c-4.32-1.09-4.58,5.15-4.58,5.15l-3.64,12.71-1.5,13.72-1.25-.66s-.59-14.56-.33-14.8,1.74-10.05,1.74-10.05.83-1.83,1.83-4.16a5,5,0,0,0,0-4.16c-1.75-3.57-5.4-1.9-6.15,0a56.39,56.39,0,0,1-3,5.65l-4.16,11.39c.15,2.58-1.33,15.3-1.33,15.3l-1.5-.69-2.41-7.46,1.84-7.65s4-4.4,3.32-7-4.07-1.82-4.07-1.82l-6.85,8.12h-2l-4.71,6A37.94,37.94,0,0,0,115.53,235l1.09,5.06v32.66s-3.24,5.24-3.24,5.73c0,.23-1.34,4.36-3.2,9.5,8.15,4.8,15.17,8.51,20.15,10.47q3.53,1.38,7.07,2.65c3-8.39,6.48-17.36,8.4-19.46,3.82-4.15,11.31-12.13,11.31-12.13s8.49-13.66,9.49-18.19c.79-3.73,2.81-10.5,3.51-12.81a4.5,4.5,0,0,0,.18-1.63c0-1.23-.17-3.61-.17-5.71C170.09,228.13,171.87,225.14,171.54,223.59Z"/><path class="cls-1" d="M120.53,220.31c1.27-1.58,3.88-2.2,5.36-.79a5.62,5.62,0,0,1,1.34,3.14,6.75,6.75,0,0,0,1.19,3.24c.78.89,2.27,1.24,3.06.39.11,1.72.21,3.44.32,5.16a20.43,20.43,0,0,0,2.71-10.55c0-1.78-.31-3.6.11-5.34s1.76-3.43,3.55-3.52c2-.08,3.55,1.84,3.93,3.79s-.06,3.93-.18,5.93a18,18,0,0,0,1.7,8.81l1.25-2.53c.38,1.7.78,3.39,1.12,5.08q.49-5.6,1-11.17a8.12,8.12,0,0,1,.68-3.07,2.69,2.69,0,0,1,1-1.16,2.73,2.73,0,0,1,1.49-.41c1.42.14,2.24,1.65,2.71,3,3.54,10,2.08,21,.58,31.53,1,.18,1.81-.78,2.06-1.78a24.45,24.45,0,0,1,.52-2.94c.37-.94,1.51-1.7,2.36-1.17,1.24.79.38,3.2,1.68,3.86a18,18,0,0,1,3.56-8.59c.87-1.13,2.17-2.25,3.56-1.89a2.82,2.82,0,0,1,1.86,2.36c.15,1,1.67-3.3,1.41-2.28.6-6.06-.6-6.69,0-12.76.11-1.09,1.88-3,1.12-3.79s-2.85-1.88-3.8-1.44-4,2-4.65,2.82c-3.86,5.33-3.6,13.05-4.8,19.53-1-9.87-2-19.91-.24-29.66,1-5.39,2.84-11,1.1-16.19-.78-2.36-2.9-4.71-5.36-4.29-2,.36-3.14,2.36-4,4.21-2.71,6.21-3.93,13-5.09,19.65l4.41-20.16a13.56,13.56,0,0,0,.46-5.3,4.66,4.66,0,0,0-3.27-3.85c-1.75-.37-3.46.66-4.76,1.86-4.72,4.27-6.42,10.8-7.94,16.94a12.37,12.37,0,0,0,.91-5,4.17,4.17,0,0,0-2.89-3.76c-2.14-.46-4.08,1.45-5,3.42s-1.4,4.26-2.9,5.85a3.57,3.57,0,0,0-4.51-.24,8.79,8.79,0,0,0-2.87,3.93,36.61,36.61,0,0,0-3,17.67,6.47,6.47,0,0,1,6.45-3.68c-.15-1.33-.3-2.67-.46-4"/><path class="cls-1" d="M125.71,233.09c-.08,1-.14,2-.21,3a1.48,1.48,0,0,1,.39-.51,1.34,1.34,0,0,1,.57-.29,1.47,1.47,0,0,1,1.22.25,3.33,3.33,0,0,1,.49-1.84c.25-.59.28-1.44-.3-1.72s-1.37.45-1.74,1.13a6.23,6.23,0,0,0-.09-.74Z"/><path class="cls-1" d="M137,231.32a7,7,0,0,0-1.58,3.28,3.48,3.48,0,0,1,1.16-.85,1.18,1.18,0,0,1,1.3.3c.18.24.24.58.51.72a.63.63,0,0,0,.45,0,.6.6,0,0,0,.33-.3,1.7,1.7,0,0,0,.2-.86,4.92,4.92,0,0,0-.09-1.71,1.7,1.7,0,0,0-.41-.74,1.62,1.62,0,0,0-.73-.44,1.18,1.18,0,0,0-.42,0,1,1,0,0,0-.38.17.86.86,0,0,0-.29.31,1.07,1.07,0,0,0-.14.39Z"/><path class="cls-1" d="M147.89,234a9,9,0,0,0-1.65,3.93,3.49,3.49,0,0,0,1.54-.82,3,3,0,0,1,1.57-.79,1,1,0,0,1,.42,0,1.2,1.2,0,0,1,.39.2,1,1,0,0,1,.27.32,1.25,1.25,0,0,1,.14.41,7.44,7.44,0,0,1,.06-2,4.29,4.29,0,0,0-.14-2,1.66,1.66,0,0,0-.59-.79,1.63,1.63,0,0,0-.93-.32,1,1,0,0,0-.47.13,1.14,1.14,0,0,0-.35.34.94.94,0,0,0-.16.46,1.11,1.11,0,0,0,0,.48Z"/><path class="cls-1" d="M117.86,238a7.88,7.88,0,0,0-.92,3.69,1.3,1.3,0,0,1,.37-.78,1.32,1.32,0,0,1,.79-.37,2.55,2.55,0,0,1,1.67.45,4.42,4.42,0,0,0,.11-1.81,1.52,1.52,0,0,0-.39-.79,1.43,1.43,0,0,0-.76-.46c-.6-.1-1.26.48-1.1,1.06l-.18-.45Z"/><path class="cls-11" d="M120.53,220.31c1.27-1.58,3.88-2.2,5.36-.79a5.62,5.62,0,0,1,1.34,3.14,6.75,6.75,0,0,0,1.19,3.24c.78.89,2.27,1.24,3.06.39.11,1.72.21,3.44.32,5.16a20.43,20.43,0,0,0,2.71-10.55c0-1.78-.31-3.6.11-5.34s1.76-3.43,3.55-3.52c2-.08,3.55,1.84,3.93,3.79s-.06,3.93-.18,5.93a18,18,0,0,0,1.7,8.81l1.25-2.53c.38,1.7.78,3.39,1.12,5.08q.49-5.6,1-11.17a8.12,8.12,0,0,1,.68-3.07,2.69,2.69,0,0,1,1-1.16,2.73,2.73,0,0,1,1.49-.41c1.42.14,2.24,1.65,2.71,3,3.54,10,2.08,21,.58,31.53,1,.18,1.81-.78,2.06-1.78a24.45,24.45,0,0,1,.52-2.94c.37-.94,1.51-1.7,2.36-1.17,1.24.79.38,3.2,1.68,3.86a18,18,0,0,1,3.56-8.59c.87-1.13,2.17-2.25,3.56-1.89a2.82,2.82,0,0,1,1.86,2.36c.15,1,1.67-3.3,1.41-2.28.6-6.06-.6-6.69,0-12.76.11-1.09,1.88-3,1.12-3.79s-2.85-1.88-3.8-1.44-4,2-4.65,2.82c-3.86,5.33-3.6,13.05-4.8,19.53-1-9.87-2-19.91-.24-29.66,1-5.39,2.84-11,1.1-16.19-.78-2.36-2.9-4.71-5.36-4.29-2,.36-3.14,2.36-4,4.21-2.71,6.21-3.93,13-5.09,19.65l4.41-20.16a13.56,13.56,0,0,0,.46-5.3,4.66,4.66,0,0,0-3.27-3.85c-1.75-.37-3.46.66-4.76,1.86-4.72,4.27-6.42,10.8-7.94,16.94a12.37,12.37,0,0,0,.91-5,4.17,4.17,0,0,0-2.89-3.76c-2.14-.46-4.08,1.45-5,3.42s-1.4,4.26-2.9,5.85a3.57,3.57,0,0,0-4.51-.24,8.79,8.79,0,0,0-2.87,3.93,36.61,36.61,0,0,0-3,17.67,6.47,6.47,0,0,1,6.45-3.68c-.15-1.33-.3-2.67-.46-4"/><g class="cls-12"><path class="cls-3" d="M125.71,233.09c-.08,1-.14,2-.21,3a1.48,1.48,0,0,1,.39-.51,1.34,1.34,0,0,1,.57-.29,1.47,1.47,0,0,1,1.22.25,3.33,3.33,0,0,1,.49-1.84c.25-.59.28-1.44-.3-1.72s-1.37.45-1.74,1.13a6.23,6.23,0,0,0-.09-.74Z"/><path class="cls-3" d="M137,231.32a7,7,0,0,0-1.58,3.28,3.48,3.48,0,0,1,1.16-.85,1.18,1.18,0,0,1,1.3.3c.18.24.24.58.51.72a.63.63,0,0,0,.45,0,.6.6,0,0,0,.33-.3,1.7,1.7,0,0,0,.2-.86,4.92,4.92,0,0,0-.09-1.71,1.7,1.7,0,0,0-.41-.74,1.62,1.62,0,0,0-.73-.44,1.18,1.18,0,0,0-.42,0,1,1,0,0,0-.38.17.86.86,0,0,0-.29.31,1.07,1.07,0,0,0-.14.39Z"/><path class="cls-3" d="M147.89,234a9,9,0,0,0-1.65,3.93,3.49,3.49,0,0,0,1.54-.82,3,3,0,0,1,1.57-.79,1,1,0,0,1,.42,0,1.2,1.2,0,0,1,.39.2,1,1,0,0,1,.27.32,1.25,1.25,0,0,1,.14.41,7.44,7.44,0,0,1,.06-2,4.29,4.29,0,0,0-.14-2,1.66,1.66,0,0,0-.59-.79,1.63,1.63,0,0,0-.93-.32,1,1,0,0,0-.47.13,1.14,1.14,0,0,0-.35.34.94.94,0,0,0-.16.46,1.11,1.11,0,0,0,0,.48Z"/><path class="cls-3" d="M117.86,238a7.88,7.88,0,0,0-.92,3.69,1.3,1.3,0,0,1,.37-.78,1.32,1.32,0,0,1,.79-.37,2.55,2.55,0,0,1,1.67.45,4.42,4.42,0,0,0,.11-1.81,1.52,1.52,0,0,0-.39-.79,1.43,1.43,0,0,0-.76-.46c-.6-.1-1.26.48-1.1,1.06l-.18-.45Z"/></g><path class="cls-13" d="M110.16,287.94c1.86-5.15,3.2-9.27,3.2-9.5,0-.5,3.24-5.73,3.24-5.73V240l-1.09-5a37.93,37.93,0,0,1,1.09-19.88l4.71-6h2l6.8-8.14s3.41-.79,4.07,1.82-3.31,7-3.31,7L129,217.44l2.41,7.46,1.5.69s1.48-12.72,1.32-15.3l4.17-11.39a56.39,56.39,0,0,0,3-5.65c.78-1.9,4.4-3.57,6.15,0a5,5,0,0,1,0,4.16c-1,2.36-1.83,4.16-1.83,4.16s-1.5,9.8-1.75,10.05.34,14.8.34,14.8l1.24.66,1.5-13.72,3.65-12.71s.25-6.24,4.58-5.15a3.38,3.38,0,0,1,3.07,2.25c1,2.32-1.25,17.11-1.25,17.11l-.06,15.47.79,12,2.66-8s1-11.64,8.43-12.08c0,0,2.21-.23,2.55,1.33s-1.45,4.54-1.45,7.53c0,2.1.12,4.48.17,5.71a4.5,4.5,0,0,1-.18,1.63c-.7,2.36-2.69,9.08-3.51,12.81-1,4.53-9.5,18.19-9.5,18.19s-7.48,8-11.3,12.13c-1.92,2.1-5.41,11.07-8.4,19.46"/><path class="cls-3" d="M132.87,226.81a4.75,4.75,0,0,1-1.12,4.48"/><path class="cls-13" d="M132.87,226.81a4.75,4.75,0,0,1-1.12,4.48"/><path class="cls-3" d="M120.16,237.8c1.08-1.66,2.13-4,1.84-5.93-.56-3.86-2.36-8.3-1.57-12.12q.75-3.66,1.52-7.32"/><path class="cls-13" d="M120.16,237.8c1.08-1.66,2.13-4,1.84-5.93-.56-3.86-2.36-8.3-1.57-12.12q.75-3.66,1.52-7.32"/><path class="cls-13" d="M151.5,201.35a7.7,7.7,0,0,1,3.93,0,10.11,10.11,0,0,1,0-1.1"/><path class="cls-13" d="M141.18,196.44a2.45,2.45,0,0,0,1.28.43,2.42,2.42,0,0,0,1.32-.29,2.5,2.5,0,0,0,1-.93,2.62,2.62,0,0,0,.35-1.31"/><path class="cls-13" d="M169.59,223.72a4.83,4.83,0,0,0-3.61,5l1.93.58"/><path class="cls-3" d="M144.29,224.68c.09,1.32-.07,4.48,0,5.8Z"/><path class="cls-13" d="M144.29,224.68c.09,1.32-.07,4.48,0,5.8"/><path class="cls-3" d="M145.74,226.51l-.48,6.48v-.82"/><path class="cls-13" d="M145.74,226.51l-.48,6.48v-.82"/><path class="cls-3" d="M157.73,244.73a10.79,10.79,0,0,1-.73,7.12Z"/><path class="cls-13" d="M157.73,244.73a10.79,10.79,0,0,1-.73,7.12"/><path class="cls-13" d="M137.81,233.4c-1.71,1.88-1.46,6.39-.25,8.87"/><path class="cls-13" d="M150.47,236.5a8.84,8.84,0,0,1-2.1,5.77"/><path class="cls-13" d="M125.33,234.26a8,8,0,0,0,1.17,5.51"/><path class="cls-13" d="M118,240.17a6.73,6.73,0,0,0,1.21,4.19"/><path class="cls-13" d="M128,203.93a2.46,2.46,0,0,1,1.44-.2,2.49,2.49,0,0,1,1.31.64l1-1.28"/><path class="cls-13" d="M136.1,209.7a3.26,3.26,0,0,1,4.15.7"/><path class="cls-13" d="M148.69,213.63a5.25,5.25,0,0,1,4.47.1"/><path class="cls-13" d="M120.67,220.23a4.26,4.26,0,0,1,4.12-2"/><path class="cls-13" d="M115.39,227.74a2.25,2.25,0,0,1,.57-1.37,2.17,2.17,0,0,1,1.3-.72"/><path class="cls-14" d="M317.92,171.26a32.58,32.58,0,1,0-32.58-32.58A32.58,32.58,0,0,0,317.92,171.26Z"/><path class="cls-5" d="M354.8,139.54c-6.95,11.38-9.43,9.84-33.11,21.22C309.66,166.53,298,148,305.9,129c.39-.93,3.78-5.62,3.78-5.62a17.33,17.33,0,0,1,12.93-13A17.35,17.35,0,0,1,340,116.2a18.75,18.75,0,0,1,16.65-4c.27.79.53,1.57.78,2.36.1.3.2.59.28.89.3.92.59,1.84.85,2.77q.78,2.64,1.44,5.31a10.65,10.65,0,0,0-7.73.46c-1.74.85-3.19,2.25-5,2.94s-4.31.3-5-1.51c.87,3.63,4.72,2.55,8.35,3.26C356.29,129.8,357.72,134.74,354.8,139.54Z"/><path class="cls-15" d="M344.1,133.92s5.84-.79,8.6-.37a5.31,5.31,0,0,1,3.39,1.91,1.84,1.84,0,0,1,.4,1l.31,4.56a1.73,1.73,0,0,1-.1.75,1.86,1.86,0,0,1-.4.66c-1.14,1.18-4.57,3.34-14.74,4.12C327.23,147.69,344.1,133.92,344.1,133.92Z"/><path class="cls-15" d="M339.84,122.13A21.74,21.74,0,0,1,344.61,136c0,5.44-6.28,24-22.39,26.25-17.05,2.36-30.76-12.2-27.83-29.76C296.42,120.33,326.15,105.12,339.84,122.13Z"/><path class="cls-3" d="M319,158.18c13.66,0,24.73-10.48,24.73-23.42S332.67,111.35,319,111.35s-24.74,10.48-24.74,23.41S305.35,158.18,319,158.18Z"/><path class="cls-10" d="M319,155.21c11.22,0,20.31-8.61,20.31-19.22s-9.09-19.22-20.31-19.22-20.31,8.61-20.31,19.22S307.74,155.21,319,155.21Z"/><path class="cls-14" d="M343.74,134.76c0-12.92-11.07-23.4-24.73-23.4s-24.74,10.51-24.74,23.4"/><path class="cls-14" d="M337.23,150.61a22.64,22.64,0,0,0,6.52-15.85"/><path class="cls-14" d="M301.68,151.48a25.39,25.39,0,0,0,17.29,6.7,25.83,25.83,0,0,0,11.49-2.66"/><path class="cls-14" d="M298.11,147.3c.33.49.67,1,1,1.42"/><path class="cls-14" d="M294.27,134.76a22.34,22.34,0,0,0,2.36,10"/><path class="cls-3" d="M355.3,141.18s-4.41-3.09-11.57-.29Z"/><path class="cls-14" d="M355.3,141.18s-4.41-3.09-11.57-.29"/><path class="cls-3" d="M351.51,143.32a44.84,44.84,0,0,1-9.14,1.43Z"/><path class="cls-14" d="M351.51,143.32a44.84,44.84,0,0,1-9.14,1.43"/><path class="cls-3" d="M353.8,142.34a4.14,4.14,0,0,1-1.1.58Z"/><path class="cls-14" d="M353.8,142.34a4.14,4.14,0,0,1-1.1.58"/><path class="cls-3" d="M357.72,115.44c-.08-.29-.18-.58-.28-.88-1.5-4.66-3.43-9.77-5.78-15.16q-.66-1.5-1.35-3l-.52,0c-2.26.22-4.63.51-6.49,1.79s-3,4-1.76,5.91,4.27,3,3.78,5.15c-5,2.83-11.18,2.5-16.79,3.93a27.23,27.23,0,0,0-9.38,4.42,30.71,30.71,0,0,0-2.55,2.14,11,11,0,0,0-1,1.12,3.79,3.79,0,0,0-.88,2c-.2,2.1,1.71,3.53,3.74,4.44a.51.51,0,0,1,.21.17.42.42,0,0,1,.08.26.38.38,0,0,1-.08.25.39.39,0,0,1-.21.17,11.93,11.93,0,0,0-3.67,2.12,1,1,0,0,0-.28.51.89.89,0,0,0,.08.58.9.9,0,0,0,.41.41,1,1,0,0,0,.58.08h.31a5.9,5.9,0,0,1,2.36.28,2.84,2.84,0,0,1,2.13,2.25c.13,1.57-1.69,3-4,3.21-.57.06-.13.74.71.88a12.39,12.39,0,0,0,5-.41c2-.47,4.08-1.15,5.2-2.84a3.54,3.54,0,0,0,.47-2.5,2.52,2.52,0,0,0-.65-1.51,2.61,2.61,0,0,0-1.44-.79,68.37,68.37,0,0,0,10.78-2.16l1.11-.34a10.17,10.17,0,0,0,3-1.32,4.26,4.26,0,0,0,1.33-1.47c.79-1.57-.34-4.08-2.08-3.75,5.07-2,10.43-3.14,15.55-5C356.09,116.11,356.92,115.79,357.72,115.44Z"/><path class="cls-5" d="M318.86,47.46a99.6,99.6,0,0,1-15.64,11c-28.62,16.93-60.94,27.07-93.83,32s-66.37,4.8-99.51,2.07c-6.51-.53-13.12-1.19-19.1-3.82C85.71,86.49,81.11,82.61,79,77.58c7.17-8.17,13.84-16.44,21.27-24.24,1.77-1.86,3.59-3.7,5.44-5.51,1.57-1.5,3.15-3,4.83-4.42,1.9-1.63,3.81-3.29,5.83-4.86,2.79-2.17,5.73-4.25,8.87-6.24.79-.5,1.58-1,2.31-1.45,78.37-48.73,136-32.8,174.54,0q4.37,3.77,8.42,7.69c1.64,1.57,3.22,3.22,4.72,4.87.17.17.33.35.49.54C316.8,45.13,317.85,46.29,318.86,47.46Z"/><path class="cls-15" d="M322,39.64,58.28,40.85l4-6a10.34,10.34,0,0,1,8.6-4.59H309.46a10.26,10.26,0,0,1,8.05,3.86Z"/><path class="cls-16" d="M194.72,79.16H180.27A26.84,26.84,0,0,0,153.43,106v14.44a26.83,26.83,0,0,0,26.84,26.84h14.45a26.84,26.84,0,0,0,26.84-26.84V106A26.85,26.85,0,0,0,194.72,79.16Z"/><path class="cls-17" d="M165.81,119v9.68a5.51,5.51,0,0,0,5.5,5.51h33.22a5.5,5.5,0,0,0,5.5-5.47c0-4.36.28-9.72.28-9.72Z"/><path class="cls-18" d="M287.41,122.22H93.1a5,5,0,0,1-4.64-3.14l-30-76.95a3.05,3.05,0,0,1,1.42-3.82A3.09,3.09,0,0,1,61.34,38H319.15a3,3,0,0,1,1.43.36,3,3,0,0,1,1.1,1,3,3,0,0,1,.52,1.38,3,3,0,0,1-.19,1.46l-30,76.92a5,5,0,0,1-1.83,2.3A4.91,4.91,0,0,1,287.41,122.22Z"/><path class="cls-10" d="M288.85,115.52H91.19L64,42.83H315.92Z"/><path class="cls-10" d="M210.08,122.12H166v3h44.06Z"/><path class="cls-1" d="M260,112.43H120.4a1.73,1.73,0,0,1-1.64-.78L98.91,48.54c-.22-.71.4-1.28,1.39-1.28H280.08c1,0,1.57.57,1.38,1.28l-19.85,63.11A1.81,1.81,0,0,1,260,112.43Z"/><path class="cls-10" d="M259.46,111H120.92L104,55.54H276.33Z"/><path class="cls-3" d="M140.8,69.31H114.58c-.66,0-1.08.34-1,.78a1.42,1.42,0,0,0,.58.61,1.41,1.41,0,0,0,.81.18h26.08c.64,0,1.1-.35,1-.79S141.45,69.31,140.8,69.31Z"/><path class="cls-3" d="M141.68,74.09H119.37c-.64,0-1.06.34-.94.79a1.38,1.38,0,0,0,1.34.75H142c.64,0,1.09-.34,1-.75A1.31,1.31,0,0,0,141.68,74.09Z"/><path class="cls-11" d="M142.53,78.72H117.22c-.63,0-1,.33-.93.72a1.37,1.37,0,0,0,.56.56,1.39,1.39,0,0,0,.77.16h25.16c.62,0,1.07-.32,1-.72S143.15,78.72,142.53,78.72Z"/><path class="cls-3" d="M143.34,83.18H128.48c-.61,0-1,.31-.94.7s.66.7,1.28.7H143.6c.62,0,1.06-.32,1-.7S144,83.18,143.34,83.18Z"/><path class="cls-3" d="M144.14,87.49H119.68c-.6,0-1,.3-.9.68a1.32,1.32,0,0,0,1.28.67h24.32c.61,0,1-.3,1-.67S144.74,87.49,144.14,87.49Z"/><path class="cls-3" d="M144.9,91.66H125.15c-.59,0-1,.29-.9.65a1.28,1.28,0,0,0,1.24.66h19.65c.59,0,1-.3,1-.66S145.5,91.66,144.9,91.66Z"/><path class="cls-3" d="M145.64,95.69H126.22c-.59,0-1,.29-.89.63s.63.64,1.22.64h19.32c.59,0,1-.28.94-.64S146.23,95.69,145.64,95.69Z"/><path class="cls-3" d="M146.35,99.59H125.13c-.57,0-1,.28-.87.61s.63.62,1.2.62h21.09c.57,0,1-.28.93-.62S146.93,99.59,146.35,99.59Z"/><path class="cls-11" d="M147.05,103.37H133.36c-.57,0-1,.27-.88.6s.61.59,1.16.59h13.63c.56,0,1-.27.91-.59S147.62,103.37,147.05,103.37Z"/><path class="cls-11" d="M139.89,64.34H120.34c-.66,0-1.1.36-1,.79a1.46,1.46,0,0,0,.58.6,1.35,1.35,0,0,0,.81.18h19.43c.66,0,1.13-.35,1-.78a1.29,1.29,0,0,0-1.34-.79Z"/><path class="cls-3" d="M138.94,59.19H111.73c-.67,0-1.11.38-1,.84a1.52,1.52,0,0,0,.59.64,1.69,1.69,0,0,0,.85.2h27.05c.67,0,1.15-.38,1.06-.84a1.38,1.38,0,0,0-.54-.65A1.35,1.35,0,0,0,138.94,59.19Z"/><path class="cls-3" d="M147.72,107H125.17c-.56,0-.93.26-.85.58s.61.57,1.17.57h22.44c.55,0,1-.25.91-.57S148.28,107,147.72,107Z"/><path class="cls-11" d="M150,71.05h5.08l-.25-1.94h-5.12Z"/><path class="cls-11" d="M150.72,75.78h5l-.24-1.88h-5Z"/><path class="cls-11" d="M151.41,80.34h4.91l-.24-1.81h-4.94Z"/><path class="cls-11" d="M152.07,84.75h4.83L156.67,83h-4.86Z"/><path class="cls-11" d="M152.71,89h4.75l-.23-1.69h-4.77Z"/><path class="cls-11" d="M153.33,93.13H158l-.21-1.63h-4.7Z"/><path class="cls-11" d="M153.93,97.12h4.59l-.2-1.58h-4.63Z"/><path class="cls-11" d="M154.5,101H159l-.19-1.53h-4.55Z"/><path class="cls-11" d="M155.07,104.71h4.45l-.2-1.49h-4.48Z"/><path class="cls-11" d="M149.28,66.15h5.18l-.26-2H149Z"/><path class="cls-11" d="M148.51,61.07h5.28L153.52,59H148.2Z"/><path class="cls-11" d="M155.61,108.33H160l-.19-1.44h-4.41Z"/><path class="cls-3" d="M182.42,100.2c0-.33.44-.61,1-.61h75.31c.58,0,1,.28.87.61a1.36,1.36,0,0,1-.52.49,1.39,1.39,0,0,1-.69.13H183.48C182.9,100.82,182.43,100.54,182.42,100.2Z"/><path class="cls-3" d="M259.51,97h-41.7c-.58,0-1-.28-1-.64s.54-.63,1.13-.63h41.92c.58,0,1,.29.87.63a1.34,1.34,0,0,1-.53.5A1.32,1.32,0,0,1,259.51,97Z"/><path class="cls-11" d="M207.91,97H195c-.58,0-1.05-.28-1.05-.64s.48-.63,1.07-.63h13c.58,0,1,.29,1,.63S208.49,97,207.91,97Z"/><path class="cls-3" d="M235,93H176.16c-.59,0-1.09-.3-1.11-.66s.44-.65,1-.65h59.14c.59,0,1,.29,1,.65S235.58,93,235,93Z"/><path class="cls-11" d="M163.86,91.66h4.19c.59,0,1.11.29,1.14.65s-.43.66-1,.66H164c-.59,0-1.1-.3-1.14-.66S163.27,91.66,163.86,91.66Z"/><path class="cls-3" d="M243.5,88.17c-.08.37-.63.67-1.24.67H186.83c-.6,0-1.09-.3-1.1-.67s.48-.68,1.08-.68h55.73C243.15,87.49,243.57,87.79,243.5,88.17Z"/><path class="cls-3" d="M163.42,87.49h15.72c.6,0,1.11.3,1.12.68s-.46.67-1.06.67H163.56c-.6,0-1.12-.3-1.16-.67S162.81,87.49,163.42,87.49Z"/><path class="cls-3" d="M163,83.18h60.48c.61,0,1.07.31,1,.7s-.59.7-1.2.7H163.1c-.6,0-1.14-.32-1.18-.7S162.34,83.18,163,83.18Z"/><path class="cls-3" d="M202.21,80.16c-.62,0-1.1-.32-1.09-.72s.54-.72,1.17-.72h31.9c.63,0,1.08.33,1,.72s-.62.72-1.24.72Z"/><path class="cls-3" d="M162.48,78.72h27.61c.63,0,1.14.33,1.14.72s-.51.72-1.14.72H162.64c-.63,0-1.16-.32-1.21-.72S161.85,78.72,162.48,78.72Z"/><path class="cls-3" d="M265.64,75.59h-76c-.63,0-1.15-.33-1.15-.74s.51-.79,1.15-.79h76.44c.64,0,1.05.34.93.79a1.4,1.4,0,0,1-.56.57A1.32,1.32,0,0,1,265.64,75.59Z"/><path class="cls-3" d="M267,70.86H200.12c-.65,0-1.16-.34-1.14-.78s.55-.79,1.19-.79h67.27c.65,0,1.07.35.95.79a1.46,1.46,0,0,1-.58.6A1.44,1.44,0,0,1,267,70.86Z"/><path class="cls-11" d="M268.41,66h-14c-.66,0-1.1-.35-1-.79a1.4,1.4,0,0,1,.57-.61,1.34,1.34,0,0,1,.81-.17h14.06c.66,0,1.1.36,1,.78a1.4,1.4,0,0,1-.58.6A1.43,1.43,0,0,1,268.41,66Z"/><path class="cls-3" d="M244.6,66H193.18c-.66,0-1.19-.35-1.18-.79s.53-.78,1.19-.78h51.74c.66,0,1.11.36,1,.78a1.36,1.36,0,0,1-.55.61A1.29,1.29,0,0,1,244.6,66Z"/><path class="cls-3" d="M165.09,103.37h47.5c.57,0,1,.27,1,.6s-.51.59-1.08.59H165.24c-.57,0-1.05-.27-1.09-.59S164.54,103.37,165.09,103.37Z"/><path class="cls-3" d="M165.5,107h73c.55,0,.95.26.88.58s-.56.57-1.12.57h-72.6c-.56,0-1-.25-1.07-.57S164.94,107,165.5,107Z"/><path class="cls-3" d="M242.05,60.87H204.9c-.67,0-1.18-.38-1.16-.84s.58-.84,1.26-.84h37.36c.68,0,1.15.38,1.06.84a1.32,1.32,0,0,1-.55.64A1.39,1.39,0,0,1,242.05,60.87Z"/><path class="cls-11" d="M194.37,60.87h-33.8c-.67,0-1.26-.38-1.3-.84s.45-.84,1.12-.84h34c.66,0,1.21.38,1.2.84S195,60.87,194.37,60.87Z"/><path class="cls-11" d="M223.14,103.37c.56,0,1,.27.94.6s-.54.59-1.11.59h-3.64c-.56,0-1-.27-1-.59s.53-.6,1.09-.6Z"/><path class="cls-11" d="M178.09,100.2c0,.34-.43.62-1,.62h-5c-.58,0-1.06-.28-1.09-.62s.42-.61,1-.61h5C177.59,99.59,178.08,99.86,178.09,100.2Z"/><path class="cls-11" d="M238.42,83.88c-.07.38-.63.7-1.24.7h-5.84c-.62,0-1.06-.32-1-.7s.61-.7,1.22-.7h5.88C238.06,83.18,238.5,83.49,238.42,83.88Z"/><path class="cls-11" d="M256.66,87.49c.61,0,1,.3.91.68a1.26,1.26,0,0,1-.53.52,1.34,1.34,0,0,1-.73.15h-4.66c-.61,0-1-.3-.93-.67a1.27,1.27,0,0,1,.52-.53,1.2,1.2,0,0,1,.74-.15Z"/><path class="cls-11" d="M180.43,75.59c-.63,0-1.16-.33-1.18-.74s.48-.79,1.12-.79h5c.64,0,1.16.34,1.16.79s-.5.74-1.13.74Z"/><path class="cls-3" d="M112.88,51.39a1.7,1.7,0,0,1-.81,2.21,1.72,1.72,0,0,1-.84.15,3.5,3.5,0,0,1-3.1-2.36,1.61,1.61,0,0,1-.14-.84,1.8,1.8,0,0,1,.29-.8,1.73,1.73,0,0,1,.65-.55,1.6,1.6,0,0,1,.83-.16,3.41,3.41,0,0,1,1.92.7A3.48,3.48,0,0,1,112.88,51.39Z"/><path class="cls-3" d="M119.28,51.43a1.76,1.76,0,0,1-.22,1.66,1.69,1.69,0,0,1-.67.54,1.62,1.62,0,0,1-.84.16,3.37,3.37,0,0,1-3-2.36,1.75,1.75,0,0,1,.21-1.64,1.76,1.76,0,0,1,.66-.55,1.73,1.73,0,0,1,.84-.16,3.31,3.31,0,0,1,1.89.69A3.37,3.37,0,0,1,119.28,51.43Z"/><path class="cls-3" d="M125.74,51.39a1.84,1.84,0,0,1,.08.87,1.77,1.77,0,0,1-.35.79,1.67,1.67,0,0,1-.67.54,1.7,1.7,0,0,1-.86.16,3.23,3.23,0,0,1-1.85-.7A3.18,3.18,0,0,1,121,51.39a1.67,1.67,0,0,1-.07-.86,1.8,1.8,0,0,1,.34-.79,1.84,1.84,0,0,1,.67-.54,1.79,1.79,0,0,1,.85-.16,3.15,3.15,0,0,1,1.86.69A3.1,3.1,0,0,1,125.74,51.39Z"/><path class="cls-19" d="M64,42.83,85.18,99.44l25.55-56.61Z"/><path class="cls-19" d="M99.74,115.52l42.38-72.69h44.37l-62.38,72.69Z"/><path class="cls-19" d="M205.62,42.46l-66.07,73.06h10.18l68.43-72.69Z"/><path class="cls-19" d="M218.67,115.52l72.61-72.69h10.25l-74.87,72.69Z"/><path class="cls-15" d="M120.21,147.07H103.63A3.94,3.94,0,0,0,99.7,151v8.07a3.94,3.94,0,0,0,3.93,3.93H108l3.28,7.44,4.63-7.44h4.33a4,4,0,0,0,2.78-1.15,3.93,3.93,0,0,0,1.15-2.78V151a3.94,3.94,0,0,0-3.93-3.88Z"/><path class="cls-10" d="M109.62,151.69a.79.79,0,0,1,.23-.56.75.75,0,0,1,.55-.23.83.83,0,0,1,.54.21.85.85,0,0,1,.25.52.83.83,0,0,1-.23.56.79.79,0,0,1-.56.23.83.83,0,0,1-.54-.21A.79.79,0,0,1,109.62,151.69Zm.17,1.64h1.26v5.39h-1.26Z"/><path class="cls-10" d="M114.1,153.05v.32h1.47v1h-1.43v4.34h-1.27v-4.34H112v-1h.89V153a1.76,1.76,0,0,1,.11-.75,1.8,1.8,0,0,1,.41-.64,1.88,1.88,0,0,1,.65-.39,1.63,1.63,0,0,1,.76-.09,2.07,2.07,0,0,1,1.14.29l-.35,1a1.26,1.26,0,0,0-.7-.22C114.37,152.18,114.1,152.47,114.1,153.05Z"/><path class="cls-15" d="M170.69,148.2h-16.6a3.93,3.93,0,0,0-3.93,3.93v8.07a3.93,3.93,0,0,0,3.93,3.93h4.34l3.27,7.44,4.63-7.44h4.34a3.93,3.93,0,0,0,3.93-3.93v-8.1a3.91,3.91,0,0,0-3.91-3.9Z"/><path class="cls-10" d="M157.59,157.56h-4.23a1.61,1.61,0,0,0,.63,1,1.66,1.66,0,0,0,1.12.32,1.94,1.94,0,0,0,.79-.14,2,2,0,0,0,.67-.45l.68.78a3,3,0,0,1-1.49.81,3,3,0,0,1-1.69-.11,3,3,0,0,1-1.36-1,3,3,0,0,1-.61-1.57,2.69,2.69,0,0,1,.79-2,2.55,2.55,0,0,1,.92-.59,2.44,2.44,0,0,1,1.07-.18,2.49,2.49,0,0,1,1.08.18,2.77,2.77,0,0,1,.91.6,2.8,2.8,0,0,1,.58.93,2.63,2.63,0,0,1,.16,1.08C157.61,157.29,157.6,157.44,157.59,157.56Zm-4.24-.83h3.1a1.49,1.49,0,0,0-1.53-1.32,1.49,1.49,0,0,0-1,.35A1.46,1.46,0,0,0,153.35,156.73Z"/><path class="cls-10" d="M158.8,152.36h1.26v7.49H158.8Z"/><path class="cls-10" d="M161.16,159.32l.48-1a3.59,3.59,0,0,0,1.88.53c.79,0,1.13-.22,1.13-.59,0-1-3.33-.07-3.33-2.21,0-1,.92-1.69,2.36-1.69a4.43,4.43,0,0,1,2,.46l-.49,1a3,3,0,0,0-1.57-.4c-.79,0-1.13.25-1.13.61,0,1.09,3.33.11,3.33,2.23,0,1-.93,1.66-2.45,1.66A4.29,4.29,0,0,1,161.16,159.32Z"/><path class="cls-10" d="M172,157.56h-4.23a1.61,1.61,0,0,0,.63,1,1.66,1.66,0,0,0,1.12.32,1.95,1.95,0,0,0,1.46-.59l.68.78a3.05,3.05,0,0,1-3.18.7,3,3,0,0,1-1.36-1,3,3,0,0,1-.61-1.57,2.65,2.65,0,0,1,.19-1.08,2.77,2.77,0,0,1,.6-.91,2.55,2.55,0,0,1,.92-.59,3.3,3.3,0,0,1,2.15,0,2.77,2.77,0,0,1,.91.6,2.68,2.68,0,0,1,.74,2C172,157.29,172,157.44,172,157.56Zm-4.24-.83h3.06a1.48,1.48,0,0,0-1.53-1.32,1.52,1.52,0,0,0-1,.36A1.47,1.47,0,0,0,167.74,156.73Z"/><path class="cls-15" d="M219.62,147.73H203a3.91,3.91,0,0,0-3.93,3.89v8.07a3.93,3.93,0,0,0,1.15,2.78,4,4,0,0,0,2.78,1.15h4.34l3.28,7.44,4.63-7.44h4.33a3.93,3.93,0,0,0,3.93-3.93v-8.07a3.91,3.91,0,0,0-3.93-3.89Z"/><path class="cls-10" d="M206.84,153.7V154h1.48v1h-1.44v4.33h-1.26V155h-.89v-1h.89v-.34a1.75,1.75,0,0,1,.1-.75,1.8,1.8,0,0,1,1.06-1,1.94,1.94,0,0,1,.76-.09,2,2,0,0,1,1.14.29l-.36,1a1.28,1.28,0,0,0-.69-.22C207.12,152.83,206.84,153.13,206.84,153.7Z"/><path class="cls-10" d="M208.65,156.68a2.91,2.91,0,0,1,.43-1.63,2.88,2.88,0,0,1,2.94-1.32,2.88,2.88,0,0,1-.5,5.72,2.76,2.76,0,0,1-1.1-.17,2.72,2.72,0,0,1-.94-.59,2.62,2.62,0,0,1-.62-.92A2.58,2.58,0,0,1,208.65,156.68Zm4.47,0a1.5,1.5,0,0,0-.32-.84,1.58,1.58,0,0,0-.72-.53,1.62,1.62,0,0,0-.9,0,1.46,1.46,0,0,0-.77.46,1.52,1.52,0,0,0-.4.8,1.59,1.59,0,0,0,.1.89,1.7,1.7,0,0,0,.58.69,1.58,1.58,0,0,0,.86.26,1.69,1.69,0,0,0,.63-.13,1.64,1.64,0,0,0,.53-.37,1.56,1.56,0,0,0,.41-1.19Z"/><path class="cls-10" d="M218.72,153.92v1.2h-.29a1.39,1.39,0,0,0-.64.1,1.42,1.42,0,0,0-.55.36,1.51,1.51,0,0,0-.33.56,1.58,1.58,0,0,0,0,.65v2.62h-1.27V154h1.2v.79a2.12,2.12,0,0,1,1.93-.88Z"/><path class="cls-15" d="M267.85,147.07H251.27a4,4,0,0,0-2.78,1.15,3.93,3.93,0,0,0-1.15,2.78v8.07a3.93,3.93,0,0,0,1.15,2.78,4,4,0,0,0,2.78,1.15h4.34l3.27,7.44,4.63-7.44h4.34a3.93,3.93,0,0,0,3.93-3.93V151a3.94,3.94,0,0,0-3.93-3.88Z"/><path class="cls-10" d="M257.41,153.06h4.65v1h-4.65Zm0,2.45h4.65v1h-4.65Z"/><path class="cls-15" d="M145.49,137.74H128.94a3.93,3.93,0,0,0-3.93,3.93v8.06a3.93,3.93,0,0,0,3.93,3.93h4.33l3.28,7.44,4.63-7.44h4.34a3.93,3.93,0,0,0,3.93-3.93v-8.1a3.91,3.91,0,0,0-.31-1.5A3.91,3.91,0,0,0,147,138,3.93,3.93,0,0,0,145.49,137.74Z"/><path class="cls-10" d="M133.3,141.08h2.41v1h-1.15v7.43h1.15v1H133.3Z"/><path class="cls-10" d="M138.84,150.54v-1H140V142.1h-1.14v-1h2.4v9.44Z"/><path class="cls-15" d="M194.79,136.91H178.2a3.93,3.93,0,0,0-2.78,1.15,4,4,0,0,0-1.15,2.78v8.06a3.93,3.93,0,0,0,3.93,3.93h4.34l3.29,7.45,4.63-7.45h4.33a3.93,3.93,0,0,0,3.93-3.93v-8.09a3.94,3.94,0,0,0-3.93-3.9Z"/><path class="cls-10" d="M183.12,145c.4.12.6.4.6,1v1.92a.7.7,0,0,0,0,.32.68.68,0,0,0,.17.28.67.67,0,0,0,.27.16.62.62,0,0,0,.33,0h.21v1h-.51a1.56,1.56,0,0,1-.68-.06,1.54,1.54,0,0,1-.59-.35,1.56,1.56,0,0,1-.37-.57,1.69,1.69,0,0,1-.08-.67V146c0-.34-.17-.49-.45-.49h-.33v-1H182c.28,0,.45-.15.45-.48V141.9a1.67,1.67,0,0,1,.08-.67,1.6,1.6,0,0,1,.37-.58,1.66,1.66,0,0,1,.59-.34,1.56,1.56,0,0,1,.68-.06h.51v1h-.21a.92.92,0,0,0-.33,0,.69.69,0,0,0-.27.17.62.62,0,0,0-.17.28.69.69,0,0,0,0,.32V144C183.72,144.55,183.52,144.83,183.12,145Z"/><path class="cls-10" d="M190.83,144.44v1h-.35c-.28,0-.45.15-.45.48V148a1.44,1.44,0,0,1-.08.68,1.65,1.65,0,0,1-.37.57,1.54,1.54,0,0,1-.59.35,1.56,1.56,0,0,1-.68,0h-.51v-1H188a.69.69,0,0,0,.32,0,.88.88,0,0,0,.28-.17.71.71,0,0,0,.16-.28.69.69,0,0,0,0-.32V146c0-.63.18-.91.58-1-.4-.14-.58-.41-.58-1V142a.69.69,0,0,0,0-.32.67.67,0,0,0-.16-.27.62.62,0,0,0-.28-.17.69.69,0,0,0-.32,0h-.21v-1h.51a1.56,1.56,0,0,1,.68,0,1.54,1.54,0,0,1,.59.35,1.65,1.65,0,0,1,.37.57,1.44,1.44,0,0,1,.08.68v2.08c0,.33.17.48.45.48Z"/><path class="cls-15" d="M243.57,135.28H227a3.93,3.93,0,0,0-3.93,3.93v8.06a4,4,0,0,0,1.15,2.78A3.93,3.93,0,0,0,227,151.2h4.33l3.29,7.44,4.63-7.44h4.34a3.89,3.89,0,0,0,2.77-1.15,3.94,3.94,0,0,0,1.16-2.78v-8.11a4,4,0,0,0-1.17-2.75A3.92,3.92,0,0,0,243.57,135.28Z"/><path class="cls-10" d="M234.61,141.25a.78.78,0,0,1,0-.34.83.83,0,0,1,.18-.3.66.66,0,0,1,.27-.2.83.83,0,0,1,.34-.07.8.8,0,0,1,.34.07.8.8,0,0,1,.45.5.78.78,0,0,1,0,.34.8.8,0,0,1,0,.34.75.75,0,0,1-.17.3.83.83,0,0,1-.62.27.83.83,0,0,1-.34-.07.76.76,0,0,1-.27-.2.92.92,0,0,1-.18-.3A.8.8,0,0,1,234.61,141.25Zm1.66,3.84a2.44,2.44,0,0,1-.23.88l-.52,1.42h-.79l.41-1.57a.88.88,0,0,1-.36-.3.89.89,0,0,1-.12-.45.83.83,0,0,1,.24-.58.82.82,0,0,1,1.4.58Z"/><path class="cls-15" d="M178.74,276.32h16.57a3.94,3.94,0,0,0,3.93-3.93v-8a3.93,3.93,0,0,0-3.93-3.93H191L189.72,253l-6.65,7.44h-4.33a3.93,3.93,0,0,0-3.93,3.93v8.07a3.93,3.93,0,0,0,3.93,3.9Z"/><path class="cls-10" d="M184.56,266.73l-3.48,1.33,3.48,1.3v1.06l-4.65-1.81v-1.09l4.65-1.81Z"/><path class="cls-10" d="M188.24,263.06h1.12L186,272.57h-1.12Z"/><path class="cls-10" d="M194.26,267.48v1.09l-4.65,1.81v-1.05l3.48-1.3-3.48-1.3v-1Z"/><path class="cls-15" d="M73.32,217.56H89.89a3.94,3.94,0,0,0,2.77-1.14,3.88,3.88,0,0,0,1.16-2.75V205.6a3.93,3.93,0,0,0-3.93-3.93H85.56l1-7.44-8.86,7.44H73.32a3.93,3.93,0,0,0-3.93,3.93v8.07a3.93,3.93,0,0,0,3.93,3.89Z"/><path class="cls-10" d="M78.23,212.45a.75.75,0,0,1,.23-.55.79.79,0,0,1,.56-.23.76.76,0,0,1,.55.23.75.75,0,0,1,.23.55.79.79,0,0,1-.23.56.76.76,0,0,1-.55.23.79.79,0,0,1-.79-.79Zm.07-6.36h1.49l-.25,4.72h-1Z"/><path class="cls-10" d="M81.1,207.9h4.65v1H81.1Zm0,2.45h4.65v1H81.1Z"/><path class="cls-3" d="M338.8,208.42a57.1,57.1,0,0,1-.79,9.32c-2.28,13.61-9.43,23.53-17.89,23.53a10.69,10.69,0,0,1-2.25-.24c-9.23-2-16.39-15.8-16.39-32.61,0-18.14,8.35-24.56,18.64-24.56S338.8,190.25,338.8,208.42Z"/><path class="cls-1" d="M332.06,208.63c.69,9.73-1,19.5-3.78,28.85,7-5.77,10.26-14.84,13.18-23.45,2.12-6.25,4.27-12.69,3.88-19.28S341.41,181.3,335.25,179a13.49,13.49,0,0,0-9.53.15c-5.18,2.08-2.36,3.77-.17,7.49A50.72,50.72,0,0,1,332.06,208.63Z"/><path class="cls-11" d="M332.06,208.63c.69,9.73-1,19.5-3.78,28.85,7-5.77,10.26-14.84,13.18-23.45,2.12-6.25,4.27-12.69,3.88-19.28S341.41,181.3,335.25,179a13.49,13.49,0,0,0-9.53.15c-5.18,2.08-2.36,3.77-.17,7.49A50.72,50.72,0,0,1,332.06,208.63Z"/><path class="cls-13" d="M338.8,208.42a57.1,57.1,0,0,1-.79,9.32c-2.28,13.61-9.43,23.53-17.89,23.53a10.69,10.69,0,0,1-2.25-.24c-9.23-2-16.39-15.8-16.39-32.61,0-18.14,8.35-24.56,18.64-24.56S338.8,190.25,338.8,208.42Z"/><path class="cls-3" d="M330.19,225.11a32.21,32.21,0,0,1-6.12,11.47Z"/><path class="cls-13" d="M330.19,225.11a32.21,32.21,0,0,1-6.12,11.47"/><path class="cls-13" d="M330.78,222.83c-.09.44-.2.88-.32,1.32"/><path class="cls-3" d="M330.73,208.37a31.91,31.91,0,0,1,.37,12.8Z"/><path class="cls-13" d="M330.73,208.37a31.91,31.91,0,0,1,.37,12.8"/><path class="cls-13" d="M301.52,208.42s21.22-8.38,37.3,0"/><path class="cls-3" d="M320.17,183.86s2.12,7.86,2.36,20.65Z"/><path class="cls-13" d="M320.17,183.86s2.12,7.86,2.36,20.65"/><path class="cls-18" d="M323.13,193.39c.27,2.45-.15,4.52-.95,4.65s-1.66-1.76-1.92-4.19.15-4.53.94-4.65S322.86,191,323.13,193.39Z"/><path class="cls-13" d="M311.81,247.56H286.92a6.11,6.11,0,0,1-6-5.28,4,4,0,0,1-.07-.84V182.81a4.07,4.07,0,0,1,.07-.85,6.07,6.07,0,0,1,6-5.26h70.52a6.11,6.11,0,0,1,2.93.78"/></g></g></svg>